<svg xmlns="http://www.w3.org/2000/svg" id="Layer_1" data-name="Layer 1" viewBox="0 0 943.85 211.04"><defs><style>.cls-1{fill:#fff}</style></defs><g id="all-white"><path d="M221.4 0h-87.79a12.68 12.68 0 0 0-11 6.34l-19.17 33.23a12.68 12.68 0 0 0 11 19h87.78a12.67 12.67 0 0 0 11-6.34l19.16-33.21A12.68 12.68 0 0 0 221.4 0ZM179.15 73.18H91.36a12.66 12.66 0 0 0-11 6.34l-18.19 31.53a12.7 12.7 0 0 0 0 12.68l43.9 76a12.67 12.67 0 0 0 22 0l62.1-107.56a12.68 12.68 0 0 0-11.02-18.99ZM98.46 19.02a12.68 12.68 0 0 0-11-19H12.7a12.68 12.68 0 0 0-11 19l31.28 54.16 6.13 10.6a12.67 12.67 0 0 0 22 0ZM296.74 63.1V34.8h20.41v28.3h16.77v16.42h-16.77v48.38c0 4.61 2.3 5.93 7.41 5.93 3.12 0 6.41-1 9.37-1.65v16.78a130.87 130.87 0 0 1-16.13 1.32c-15.13 0-21.06-7.56-21.06-19.74V79.52h-11.82V63.1ZM341.01 162.52a38.64 38.64 0 0 0 8.55.65c7.08 0 11-2 13.5-6.75 2-4.11 3.28-6.59 3.28-10 0-3.13-1.64-6.75-2.62-10.2L340.85 63.1h20.56l14.16 52.66h.35l14.64-52.66h20.36l-27 85.74c-13 23.27-20.72 29.7-33.08 31.1-4.91.55-7.41-.33-9.87-.66ZM419.6 29.87H440v118.81h-20.4zM505.04 95.36c-.33-11.85-6.58-18.76-16.45-18.76s-16.13 6.92-16.45 18.76Zm-32.9 13.82c.32 17.77 8.22 24.69 17.76 24.69s14-4.28 19.09-10.21l14.81 9.22c-7.88 12.18-19.42 17.44-35.88 17.44-22.22 0-36.21-17.28-36.21-44.43s14-44.43 37.2-44.43c22.37-.17 34.88 18.76 34.88 39.33v8.39ZM535.73 148.68V63.1h18.75v14.65h.34c4.94-10.2 11.85-16 26.32-16.57v21.55c-3.28.13-4.43.13-5.92.13-10.2 0-19.09 11.68-19.09 13.82v52ZM409.39 167.35v29.06a34.22 34.22 0 0 0 .2 5.45h-3.16l-.48-2.43a8.2 8.2 0 0 1-6.55 2.91c-4.39 0-10.18-3-10.18-12.9 0-9.66 5.79-12.91 10-12.91a10.69 10.69 0 0 1 6.55 2.77l.19.1v-12Zm-3.47 15.58c-1.86-2-4.2-3.44-6.26-3.44-4 0-7 2.63-7 10.14 0 6.3 2.73 9.75 7 9.75 2.2 0 3.82-1 6.26-3.35ZM435.02 196.52c-1.63 2.82-3.92 5.78-9.56 5.78s-10.8-3.82-10.8-12.9c0-8 4-12.91 10.13-12.91 5.16 0 9.46 3.34 9.46 11.28v2.29H418.1c0 5.46 3.25 9.28 7.36 9.28a7.68 7.68 0 0 0 6.88-4.21Zm-4.21-9.42c0-4.59-2.2-7.65-5.92-7.65-4.16 0-6.41 3.06-6.7 7.65ZM439.66 195.52a8.41 8.41 0 0 0 7.13 3.82c3.72 0 5.35-2 5.35-4.11 0-6.31-14.72-3-14.44-12.05.15-4.3 3.44-6.74 8.22-6.69a10.9 10.9 0 0 1 8.51 4.35l-2.39 2.1c-1.91-2.34-3.72-3.49-6.4-3.49-2.92 0-4.5 1.48-4.5 3.68 0 5.4 14.44 2.63 14.44 11.9 0 4.83-4.2 7.27-8.7 7.27a12.38 12.38 0 0 1-9.94-4.73ZM464.52 166.87v4.11h-3.44v-4.11Zm-3.44 10.14h3.44v24.85h-3.44ZM491.53 179.52a9.62 9.62 0 0 0-3.82.67 8.36 8.36 0 0 1 1.72 5.07 8.82 8.82 0 0 1-9.08 8.7 13.8 13.8 0 0 1-4.4-.67 2.32 2.32 0 0 0-2 2.3c0 1.14.81 1.81 2.06 1.81 11.76 0 15.53 2.1 15.53 7 0 3.63-3.58 6.69-11.33 6.69-7 0-10.71-1.91-10.71-6 0-2.49 1.53-3.68 4.21-5.07a4 4 0 0 1-3.11-3.54c0-2.15 1.44-3 3.35-4.25a8.34 8.34 0 0 1-3.39-6.93c0-5.26 4.11-8.7 9.41-8.7a10 10 0 0 1 6.17 1.72 12 12 0 0 1 5.35-2.2Zm-11.8 21.32c-5.4 0-6.93 2.39-6.93 4.16s1.14 3.11 8 3.11c4.11 0 7.45-1.15 7.5-3.59s-2.5-3.71-8.57-3.71Zm.19-21.32c-3.92 0-6 2.49-6 5.74s2.58 5.74 6.4 5.74 5.93-2.59 5.93-5.55c-.07-3.66-2.17-5.93-6.33-5.93ZM499.33 177.01v3.34h.1c2-2.2 4.54-3.82 7.36-3.82 3.68 0 7.17 1.91 7.17 7.27v18.06h-3.45v-18c0-3.3-1.57-4.4-4.06-4.4s-5.54 2.11-7.12 3.78v18.59h-3.41v-24.82ZM534.92 195.52a8.4 8.4 0 0 0 7.12 3.82c3.73 0 5.36-2 5.36-4.11 0-6.31-14.73-3-14.44-12.05.14-4.3 3.44-6.74 8.22-6.69a10.92 10.92 0 0 1 8.51 4.35l-2.39 2.1c-1.91-2.34-3.73-3.49-6.41-3.49-2.91 0-4.49 1.48-4.49 3.68 0 5.4 14.44 2.63 14.44 11.9 0 4.83-4.21 7.27-8.7 7.27a12.41 12.41 0 0 1-10-4.73ZM571.92 177.01l-8.74 27c-1.82 5.55-5.12 7-8.37 7a13.3 13.3 0 0 1-2.49-.29v-2.82a15.87 15.87 0 0 0 1.87.15c2.1 0 5.3-.48 6.5-5.93l-8.66-25.14h3.64l6.69 19h.1l5.83-19ZM575.68 195.52a8.38 8.38 0 0 0 7.12 3.82c3.73 0 5.35-2 5.35-4.11 0-6.31-14.72-3-14.43-12.05.14-4.3 3.44-6.74 8.22-6.69a10.93 10.93 0 0 1 8.51 4.35l-2.39 2.1c-1.91-2.34-3.73-3.49-6.41-3.49-2.91 0-4.49 1.48-4.49 3.68 0 5.4 14.44 2.63 14.44 11.9 0 4.83-4.21 7.27-8.7 7.27a12.4 12.4 0 0 1-10-4.73ZM597.1 177.01v-8.18h3.44v8.18h5.73v3h-5.73v17.69c0 1.14.81 1.72 2.82 1.72a19.91 19.91 0 0 0 3.06-.24V202a16 16 0 0 1-4 .38c-3.73 0-5.3-.95-5.3-4.11v-18.3h-4.07v-3ZM629.51 196.52c-1.63 2.82-3.92 5.78-9.56 5.78s-10.81-3.82-10.81-12.9c0-8 4-12.91 10.14-12.91 5.16 0 9.46 3.34 9.46 11.28v2.29h-16.15c0 5.46 3.24 9.28 7.36 9.28a7.68 7.68 0 0 0 6.88-4.21Zm-4.21-9.42c0-4.59-2.2-7.65-5.93-7.65-4.15 0-6.4 3.06-6.69 7.65ZM634.19 201.86v-24.85h3.45v3.3l.19-.2a10.08 10.08 0 0 1 7.22-3.58c3.2 0 5.45 1.62 6.35 3.92a11.15 11.15 0 0 1 7.89-3.92c3.3 0 6.84 1.38 6.84 7.55v17.78h-3.44v-17.78c0-3.34-1.68-4.59-3.88-4.59-3.06 0-5.07 2-6.93 3.83v18.54h-3.44v-17.78c0-3.34-1.67-4.59-3.87-4.59-3.06 0-5.07 2-6.93 3.83v18.54ZM641.09 79.72v69.1h-20.41v-69.1h-11.84V63.27h11.68V52.73c0-18.42 7.4-24.35 24.19-24.35h13.49v16.46h-5.6c-8.55 0-11.51 2.63-11.51 9.21v9.22h17.27v16.45ZM699.5 61.62c23.2 0 37.18 17.28 37.18 44.42s-13.98 44.48-37.18 44.48-37.19-17.28-37.19-44.43 13.99-44.47 37.19-44.47Zm0 16.45c-11.36 0-16.79 8.89-16.79 28s5.43 28 16.79 28 16.78-8.88 16.78-28-5.43-28-16.78-28ZM746.56 148.82V63.27h18.76v14.64h.33c4.93-10.2 11.84-16 24-16.29v21.55a23.91 23.91 0 0 0-3.62-.16c-10.2 0-19.09 11.68-19.09 13.82v52ZM869.14 75.44c-4.77 0-10 0-13.16 2a25.09 25.09 0 0 1 4.6 15.13c0 16.13-10.86 27.64-32.25 27.64-8.88 0-16 .33-16 5.27 0 13.82 56.27-4.94 56.27 29.29 0 12.17-12.34 25.34-39.65 25.34-23 0-38.17-6.92-38.17-20.41 0-10.69 8.06-15.79 15.47-15.79v-.39c-4-2.47-12.67-4.61-12.67-13.82 0-8.23 9.54-14.48 13.33-15.63-7.08-5.76-12.67-12.34-12.67-22.71 0-15 11.51-29.78 33.73-29.78 7.23 0 15.79 3 21.06 7.57 3.94-5.27 10.36-7.9 20.07-7.57Zm-59.56 81.61c0 6.58 5.59 9.54 22.7 9.54 13.17 0 17.61-6.58 17.61-9.54 0-3.95-6.09-9.87-25.83-9.87-11.14 0-14.48 6.25-14.48 9.87Zm18.26-80.29c-8.72 0-14.81 6.25-14.81 14.15s6.09 14.15 14.81 14.15a14.15 14.15 0 0 0 0-28.3ZM892.18 109.33c.33 17.77 8.23 24.68 17.77 24.68s14-4.27 19.09-10.2l14.8 9.22c-7.92 12.17-19.41 17.49-35.86 17.49-22.22 0-36.2-17.28-36.2-44.43s13.98-44.47 37.14-44.47c22.38-.16 34.88 18.76 34.88 39.32v8.39Zm32.91-13.81c-.33-11.84-6.58-18.75-16.46-18.75s-16.12 6.9-16.45 18.75Z" class="cls-1"/></g></svg>