<svg xmlns="http://www.w3.org/2000/svg" id="Layer_1" data-name="Layer 1" viewBox="0 0 943.81 211.04">
  <defs>
    <style>.cls-1{fill:#86bcde}.cls-2{fill:#005a96}</style>
  </defs>
  <g id="color">
    <path d="M221.39 0h-87.78a12.69 12.69 0 0 0-11 6.34l-19.17 33.23a12.68 12.68 0 0 0 11 19h87.79a12.67 12.67 0 0 0 11-6.34l19.14-33.21A12.68 12.68 0 0 0 221.39 0Z" class="cls-1"/>
    <path d="M179.14 73.18H91.36a12.69 12.69 0 0 0-11 6.34l-18.2 31.53a12.66 12.66 0 0 0 0 12.68l43.89 76a12.69 12.69 0 0 0 22 0l62.1-107.56a12.68 12.68 0 0 0-11.01-18.99Z" class="cls-2"/>
    <path d="M111.56 31.51a12.69 12.69 0 0 0-11-19H25.8a12.69 12.69 0 0 0-11 19l31.28 54.15 6.12 10.6a12.68 12.68 0 0 0 22 0Z" style="fill:#00366b" transform="translate(-13.1 -12.48)"/>
    <path d="M296.73 63.11V34.8h20.4v28.31h16.77v16.41h-16.77v48.38c0 4.6 2.3 5.92 7.41 5.92 3.12 0 6.42-1 9.38-1.64v16.78a133 133 0 0 1-16.13 1.32c-15.14 0-21.06-7.56-21.06-19.75V79.52H284.9V63.11ZM341 162.52a38.6 38.6 0 0 0 8.55.65c7.07 0 11-2 13.49-6.74 2-4.11 3.29-6.59 3.29-10 0-3.13-1.64-6.75-2.63-10.2l-22.87-73.12h20.56l14.16 52.65h.35l14.65-52.65h20.35l-27 85.73c-13 23.27-20.72 29.7-33.09 31.1-4.9.55-7.4-.33-9.86-.66ZM419.58 29.87h20.4v118.81h-20.4zM505.02 95.36c-.33-11.85-6.58-18.76-16.46-18.76s-16.12 6.92-16.44 18.76Zm-32.9 13.82c.32 17.77 8.22 24.68 17.76 24.68s14-4.28 19.09-10.2l14.81 9.22c-7.88 12.18-19.42 17.44-35.88 17.44-22.22 0-36.21-17.28-36.21-44.43s14-44.43 37.2-44.43c22.37-.17 34.88 18.76 34.88 39.33v8.39ZM535.71 148.67V63.11h18.75v14.64h.33c4.94-10.2 11.85-16 26.32-16.57v21.55c-3.27.13-4.43.13-5.91.13-10.2 0-19.09 11.68-19.09 13.81v52Z" class="cls-2"/>
    <path d="M409.39 167.33v29.07a34.38 34.38 0 0 0 .19 5.46h-3.16l-.52-2.44a8.18 8.18 0 0 1-6.55 2.92c-4.4 0-10.18-3-10.18-12.92 0-9.65 5.78-12.91 10-12.91a10.7 10.7 0 0 1 6.55 2.78l.19.09v-12.05Zm-3.49 15.59c-1.86-2.06-4.21-3.44-6.26-3.44-4 0-7 2.63-7 10.14 0 6.31 2.72 9.75 7 9.75 2.2 0 3.82-1 6.26-3.35ZM435.01 196.52c-1.62 2.82-3.92 5.79-9.56 5.79s-10.81-3.79-10.81-12.89c0-8 4-12.91 10.14-12.91 5.16 0 9.47 3.35 9.47 11.29v2.29h-16.17c0 5.45 3.25 9.28 7.37 9.28a7.68 7.68 0 0 0 6.88-4.21Zm-4.21-9.42c0-4.59-2.2-7.65-5.93-7.65-4.16 0-6.4 3.06-6.69 7.65ZM439.64 195.52a8.4 8.4 0 0 0 7.13 3.83c3.73 0 5.36-2 5.36-4.11 0-6.31-14.73-3-14.45-12.05.15-4.31 3.45-6.75 8.23-6.7a11 11 0 0 1 8.51 4.35l-2.39 2.11c-1.91-2.34-3.73-3.49-6.41-3.49-2.92 0-4.49 1.48-4.49 3.68 0 5.4 14.44 2.63 14.44 11.91 0 4.83-4.21 7.27-8.71 7.27a12.39 12.39 0 0 1-9.94-4.74ZM464.5 166.85v4.12h-3.44v-4.12Zm-3.44 10.14h3.44v24.87h-3.44ZM491.52 179.52a9.71 9.71 0 0 0-3.83.67 8.36 8.36 0 0 1 1.73 5.07 8.83 8.83 0 0 1-9.09 8.7 13.8 13.8 0 0 1-4.4-.67 2.31 2.31 0 0 0-2 2.29c0 1.15.81 1.82 2.06 1.82 11.76 0 15.54 2.11 15.54 7 0 3.64-3.59 6.7-11.34 6.7-7 0-10.71-1.91-10.71-6 0-2.48 1.53-3.68 4.21-5.07a4 4 0 0 1-3.11-3.54c0-2.15 1.44-3.06 3.35-4.25a8.34 8.34 0 0 1-3.39-6.93c0-5.26 4.11-8.71 9.42-8.71a10.07 10.07 0 0 1 6.16 1.72 12.25 12.25 0 0 1 5.36-2.2Zm-11.81 21.32c-5.4 0-6.94 2.4-6.94 4.17s1.15 3.1 8 3.1c4.11 0 7.46-1.14 7.51-3.58s-2.5-3.73-8.57-3.73Zm.19-21.32c-3.92 0-6 2.49-6 5.74s2.58 5.73 6.4 5.73 5.93-2.58 5.93-5.54c-.07-3.68-2.17-5.93-6.33-5.93ZM499.31 176.99v3.35h.1c2-2.2 4.54-3.83 7.36-3.83 3.68 0 7.17 1.92 7.17 7.27v18.08h-3.44v-18c0-3.3-1.58-4.4-4.07-4.4s-5.54 2.1-7.12 3.78v18.6h-3.41v-24.85ZM534.9 195.52a8.4 8.4 0 0 0 7.13 3.83c3.73 0 5.36-2 5.36-4.11 0-6.31-14.73-3-14.45-12.05.15-4.31 3.45-6.75 8.23-6.7a11 11 0 0 1 8.51 4.35l-2.39 2.11c-1.91-2.34-3.73-3.49-6.41-3.49-2.92 0-4.49 1.48-4.49 3.68 0 5.4 14.44 2.63 14.44 11.91 0 4.83-4.21 7.27-8.7 7.27a12.39 12.39 0 0 1-10-4.74ZM571.9 176.99l-8.75 27.07c-1.81 5.54-5.11 7-8.37 7a13.28 13.28 0 0 1-2.48-.29v-2.82a16.18 16.18 0 0 0 1.86.14c2.11 0 5.31-.47 6.51-5.93l-8.66-25.15h3.63l6.7 19h.1l5.83-19ZM575.66 195.52a8.37 8.37 0 0 0 7.12 3.83c3.73 0 5.36-2 5.36-4.11 0-6.31-14.73-3-14.44-12.05.14-4.31 3.44-6.75 8.22-6.7a11 11 0 0 1 8.51 4.35l-2.39 2.11c-1.91-2.34-3.73-3.49-6.41-3.49-2.91 0-4.49 1.48-4.49 3.68 0 5.4 14.44 2.63 14.44 11.91 0 4.83-4.21 7.27-8.7 7.27a12.41 12.41 0 0 1-10-4.74ZM597.07 176.99v-8.18h3.45v8.18h5.73v3h-5.73v17.69c0 1.15.81 1.72 2.82 1.72a18.63 18.63 0 0 0 3.06-.24v2.82a15.81 15.81 0 0 1-4 .39c-3.73 0-5.31-1-5.31-4.12v-18.29h-4.06v-3ZM629.49 196.52c-1.62 2.82-3.92 5.79-9.56 5.79s-10.81-3.79-10.81-12.89c0-8 4-12.91 10.14-12.91 5.16 0 9.47 3.35 9.47 11.29v2.29h-16.17c0 5.45 3.26 9.28 7.37 9.28a7.68 7.68 0 0 0 6.88-4.21Zm-4.21-9.42c0-4.59-2.2-7.65-5.93-7.65-4.16 0-6.4 3.06-6.69 7.65ZM634.17 201.86v-24.87h3.45v3.3l.19-.19a10.11 10.11 0 0 1 7.22-3.59 6.47 6.47 0 0 1 6.36 3.92 11.15 11.15 0 0 1 7.89-3.92c3.3 0 6.84 1.39 6.84 7.56v17.79h-3.45v-17.79c0-3.35-1.67-4.59-3.87-4.59-3.06 0-5.07 2-6.93 3.82v18.56h-3.45v-17.79c0-3.35-1.67-4.59-3.87-4.59-3.06 0-5.07 2-6.93 3.82v18.56Z" class="cls-1"/>
    <path d="M641.06 79.72v69.1h-20.4v-69.1h-11.85V63.27h11.68V52.74c0-18.43 7.41-24.35 24.19-24.35h13.49v16.45h-5.59c-8.56 0-11.52 2.63-11.52 9.21v9.22h17.27v16.45ZM699.47 61.62c23.2 0 37.18 17.28 37.18 44.42s-13.98 44.48-37.18 44.48-37.18-17.28-37.18-44.43 13.98-44.47 37.18-44.47Zm0 16.45c-11.35 0-16.78 8.89-16.78 28s5.43 28 16.78 28 16.78-8.88 16.78-28-5.43-28-16.78-28ZM746.53 148.82V63.27h18.75v14.64h.33c4.94-10.2 11.85-16 24-16.29v21.55a23.78 23.78 0 0 0-3.62-.16c-10.2 0-19.08 11.68-19.08 13.82v52ZM869.1 75.44c-4.77 0-10 0-13.16 2a25.09 25.09 0 0 1 4.61 15.08c0 16.13-10.86 27.64-32.25 27.64-8.88 0-16 .33-16 5.27 0 13.82 56.27-4.94 56.27 29.28 0 12.18-12.34 25.34-39.65 25.34-23 0-38.17-6.91-38.17-20.4 0-10.69 8.06-15.8 15.46-15.8v-.33c-4-2.47-12.67-4.61-12.67-13.82 0-8.23 9.55-14.48 13.33-15.64-7.07-5.75-12.67-12.33-12.67-22.7 0-15 11.52-29.78 33.73-29.78 7.24 0 15.8 3 21.06 7.57 4-5.27 10.37-7.9 20.07-7.57Zm-59.56 81.61c0 6.58 5.6 9.54 22.71 9.54 13.16 0 17.6-6.58 17.6-9.54 0-3.95-6.08-9.87-25.83-9.87-11.19 0-14.48 6.25-14.48 9.87Zm18.27-80.29c-8.72 0-14.81 6.25-14.81 14.15s6.09 14.15 14.81 14.15a14.15 14.15 0 0 0 0-28.3ZM892.14 109.33c.33 17.77 8.23 24.68 17.77 24.68s14-4.27 19.09-10.2l14.8 9.22c-7.9 12.17-19.41 17.49-35.9 17.49-22.21 0-36.2-17.28-36.2-44.43s14.03-44.47 37.2-44.47c22.38-.16 34.88 18.76 34.88 39.32v8.39Zm32.91-13.81c-.33-11.84-6.58-18.75-16.46-18.75s-16.12 6.9-16.45 18.75Z" class="cls-2"/>
  </g>
</svg>