<?xml version="1.0" encoding="UTF-8"?>
<svg width="159px" height="159px" viewBox="0 0 159 159" version="1.1" xmlns="http://www.w3.org/2000/svg" xmlns:xlink="http://www.w3.org/1999/xlink">
    <!-- Generator: Sketch 62 (91390) - https://sketch.com -->
    <title>Talking Ts ONLY</title>
    <desc>Created with Sketch.</desc>
    <defs>
        <polygon id="path-1" points="0.06 0.421 26.01 0.421 26.01 26.4350012 0.06 26.4350012"></polygon>
        <polygon id="path-3" points="0.281 0.699 26.293 0.699 26.293 71 0.281 71"></polygon>
    </defs>
    <g id="Page-1" stroke="none" stroke-width="1" fill="none" fill-rule="evenodd">
        <g id="Talking-Ts-ONLY">
            <g id="Group-3" transform="translate(0.000000, 44.000000)">
                <mask id="mask-2" fill="white">
                    <use xlink:href="#path-1"></use>
                </mask>
                <g id="Clip-2"></g>
                <path d="M13.005,0.421 C20.188,0.421 26.01,6.244 26.01,13.426 C26.01,20.612 20.188,26.438 13.002,26.4350012 C5.821,26.432 -2.05885275e-06,20.61 -2.05885275e-06,13.426 C-0.004,6.244 5.821,0.421 13.005,0.421" id="Fill-1" fill="#0C5182" mask="url(#mask-2)"></path>
            </g>
            <path d="M35.148,66.562 C42.327,66.562 48.15,72.385 48.15,79.569 C48.15,86.754 42.327,92.58 35.148,92.5750032 C27.964,92.573 22.1429979,86.754 22.1429979,79.569 C22.139,72.385 27.959,66.567 35.148,66.562" id="Fill-4" fill="#0C5182"></path>
            <g id="Group-8" transform="translate(44.000000, 88.000000)">
                <mask id="mask-4" fill="white">
                    <use xlink:href="#path-3"></use>
                </mask>
                <g id="Clip-6"></g>
                <path d="M13.289,0.699 C20.47,0.699 26.293,6.526 26.293,13.709 C26.293,20.895 20.47,26.719 13.289,26.7140032 C6.102,26.7140032 0.281,20.893 0.281,13.709 C0.281,6.531 6.101,0.705 13.289,0.699" id="Fill-5" fill="#0C5182" mask="url(#mask-4)"></path>
                <path d="M13.289,44.987 C20.47,44.987 26.293,50.812 26.293,57.993 C26.293,65.177 20.47,71.003 13.289,71.0000012 C6.102,71.0000012 0.281,65.177 0.281,57.993 C0.281,50.812 6.101,44.987 13.289,44.987" id="Fill-7" fill="#0C5182" mask="url(#mask-4)"></path>
            </g>
            <path d="M79.43,110.848 C86.61,110.848 92.434,116.669 92.434,123.848 C92.434,131.033 86.61,136.862 79.43,136.858002 C72.243,136.858002 66.4249968,131.032 66.4249968,123.848 C66.42,116.674 72.243,110.848 79.43,110.848" id="Fill-9" fill="#0C5182"></path>
            <path d="M101.57,88.699 C108.752,88.699 114.575,94.526 114.575,101.709 C114.575,108.895 108.752,114.719 101.57,114.714003 C94.389,114.714003 88.5679968,108.893 88.5679968,101.709 C88.563,94.531 94.385,88.705 101.57,88.699" id="Fill-10" fill="#0C5182"></path>
            <path d="M57.289,44.421 C64.47,44.421 70.293,50.244 70.293,57.426 C70.293,64.612 64.47,70.438 57.289,70.4350012 C50.102,70.432 44.281,64.61 44.281,57.426 C44.281,50.244 50.101,44.421 57.289,44.421" id="Fill-11" fill="#99A557"></path>
            <path d="M79.43,22.28 C86.61,22.28 92.434,28.101 92.434,35.285 C92.434,42.471 86.61,48.297 79.43,48.2910046 C72.243,48.2910046 66.4249968,42.469 66.4249968,35.285 C66.42,28.106 72.243,22.28 79.43,22.28" id="Fill-12" fill="#99A557"></path>
            <path d="M101.57,44.421 C108.752,44.421 114.575,50.244 114.575,57.426 C114.575,64.612 108.752,70.438 101.57,70.4350012 C94.389,70.432 88.5679968,64.61 88.5679968,57.426 C88.563,50.244 94.385,44.421 101.57,44.421" id="Fill-13" fill="#99A557"></path>
            <path d="M123.714,66.562 C130.895,66.562 136.721,72.385 136.721,79.569 C136.721,86.754 130.895,92.58 123.714,92.5750032 C116.532,92.573 110.705997,86.754 110.705997,79.569 C110.701,72.385 116.527,66.567 123.714,66.562" id="Fill-14" fill="#99A557"></path>
            <path d="M145.854,88.699 C153.04,88.699 158.856,94.526 158.861,101.709 C158.856,108.895 153.04,114.719 145.854,114.714003 C138.671,114.714003 132.849997,108.893 132.849997,101.709 C132.845,94.531 138.668,88.705 145.854,88.699" id="Fill-15" fill="#99A557"></path>
            <path d="M101.57,0.137 C108.752,0.137 114.575,5.958 114.575,13.141 C114.575,20.327 108.752,26.154 101.57,26.154 C94.389,26.154 88.5679968,20.325 88.5679968,13.141 C88.563,5.963 94.385,0.139 101.57,0.137" id="Fill-16" fill="#99A557"></path>
            <path d="M123.829,115.877 C124.637,115.877 125.547,115.917 125.547,114.842 C125.547,113.974 124.848,113.848 124.205,113.848 L122.858,113.848 L122.858,115.877 L123.829,115.877 Z M122.858,119.323 L122.02,119.323 L122.02,113.146 L124.39,113.146 C125.769,113.146 126.389,113.75 126.389,114.854 C126.389,115.95 125.677,116.425 124.961,116.576 L126.684,119.323 L125.725,119.323 L124.046,116.576 L122.858,116.576 L122.858,119.323 Z M128.304,116.23 C128.304,113.725 126.444,111.736 123.952,111.736 C121.459,111.736 119.593,113.725 119.593,116.23 C119.593,118.735 121.459,120.724 123.952,120.724 C126.444,120.724 128.304,118.735 128.304,116.23 Z M129.149,116.23 C129.149,119.085 126.819,121.421 123.952,121.421 C121.083,121.421 118.758,119.085 118.758,116.23 C118.758,113.368 121.083,111.036 123.952,111.036 C126.819,111.036 129.149,113.368 129.149,116.23 L129.149,116.23 Z" id="Fill-17" fill="#99A557"></path>
        </g>
    </g>
</svg>