<svg id="Layer_1" data-name="Layer 1" xmlns="http://www.w3.org/2000/svg" viewBox="0 0 289.12 153.35"><defs><style>.cls-1{opacity:0.71;}.cls-2,.cls-3{fill:#fcbf12;}.cls-3{stroke:#d3a020;}.cls-3,.cls-8{stroke-miterlimit:10;}.cls-4{fill:#d3a020;}.cls-5{fill:#fff;}.cls-6{fill:#5cc5cd;opacity:0.8;}.cls-7{fill:#449ea0;}.cls-8{fill:#eaeaea;stroke-width:2.5px;}.cls-8,.cls-9{stroke:#d3d3d3;}.cls-9{fill:none;stroke-linecap:round;stroke-linejoin:round;stroke-width:1.5px;}.cls-10{fill:#d0dbf4;}.cls-11{fill:#586ab1;}</style></defs><title>404-spot-hero</title><g class="cls-1"><path class="cls-2" d="M102.74,98.55a.38.38,0,0,1-.35-.23.37.37,0,0,1,.21-.49,41.49,41.49,0,0,1,15.92-3.17c1.36,0,2.74.07,4.09.2a.37.37,0,0,1,.33.41.37.37,0,0,1-.41.33c-1.32-.13-2.67-.19-4-.19a40.86,40.86,0,0,0-15.64,3.11A.32.32,0,0,1,102.74,98.55Z" transform="translate(-6.24 -56.92)"/><path class="cls-2" d="M102.74,98.7a.54.54,0,0,1-.49-.33.52.52,0,0,1,.29-.68,41.61,41.61,0,0,1,16-3.18c1.37,0,2.75.07,4.1.2a.52.52,0,0,1,.36.19.51.51,0,0,1,.11.38.51.51,0,0,1-.57.47c-1.32-.13-2.66-.19-4-.19a40.51,40.51,0,0,0-15.58,3.1A.71.71,0,0,1,102.74,98.7Zm15.78-3.89A41.44,41.44,0,0,0,102.65,98a.23.23,0,0,0-.12.3.22.22,0,0,0,.29.12,41,41,0,0,1,15.7-3.12c1.35,0,2.7.07,4,.19a.22.22,0,0,0,.16,0,.26.26,0,0,0,.09-.16.28.28,0,0,0,0-.16.26.26,0,0,0-.16-.09C121.25,94.87,119.88,94.81,118.52,94.81Z" transform="translate(-6.24 -56.92)"/><path class="cls-2" d="M144.69,104.77a.41.41,0,0,1-.24-.08,40.88,40.88,0,0,0-17.95-8.5.37.37,0,0,1-.29-.44.38.38,0,0,1,.44-.29,41.7,41.7,0,0,1,18.28,8.65.38.38,0,0,1,0,.53A.37.37,0,0,1,144.69,104.77Z" transform="translate(-6.24 -56.92)"/><path class="cls-2" d="M144.69,104.92a.54.54,0,0,1-.34-.12,40.77,40.77,0,0,0-17.88-8.46.57.57,0,0,1-.33-.22.56.56,0,0,1-.08-.4.57.57,0,0,1,.22-.33.52.52,0,0,1,.4-.08A42,42,0,0,1,145,104a.52.52,0,0,1,.19.36.53.53,0,0,1-.52.57ZM126.58,95.6a.2.2,0,0,0-.13,0,.24.24,0,0,0-.1.14.21.21,0,0,0,0,.17.21.21,0,0,0,.14.1,41,41,0,0,1,18,8.52.23.23,0,0,0,.32,0,.21.21,0,0,0,0-.17.19.19,0,0,0-.08-.15,41.61,41.61,0,0,0-18.21-8.62Z" transform="translate(-6.24 -56.92)"/><path class="cls-2" d="M150.41,110.49a.4.4,0,0,1-.29-.14c-.82-1-1.73-2-2.7-3a.37.37,0,0,1,.53-.53,40.36,40.36,0,0,1,2.75,3,.38.38,0,0,1,0,.53A.36.36,0,0,1,150.41,110.49Z" transform="translate(-6.24 -56.92)"/><path class="cls-2" d="M150.41,110.64a.51.51,0,0,1-.4-.2c-.82-1-1.73-2-2.69-3a.51.51,0,0,1,0-.74.53.53,0,0,1,.74,0c1,1,1.91,2,2.76,3a.53.53,0,0,1-.07.74A.61.61,0,0,1,150.41,110.64Zm-2.72-3.75a.23.23,0,0,0-.16.06.22.22,0,0,0,0,.32c1,1,1.88,2,2.71,3a.24.24,0,0,0,.32,0,.23.23,0,0,0,0-.32c-.84-1-1.76-2-2.74-3A.27.27,0,0,0,147.69,106.89Z" transform="translate(-6.24 -56.92)"/><path class="cls-2" d="M159.57,140.68h0a.37.37,0,0,1-.34-.41c.13-1.31.19-2.66.19-4A41.1,41.1,0,0,0,154.57,117a.38.38,0,0,1,.15-.51.37.37,0,0,1,.51.16,41.8,41.8,0,0,1,4.91,19.61c0,1.37-.06,2.74-.19,4.07A.38.38,0,0,1,159.57,140.68Z" transform="translate(-6.24 -56.92)"/><path class="cls-2" d="M159.57,140.83h0a.49.49,0,0,1-.35-.19.53.53,0,0,1-.12-.38c.13-1.31.19-2.65.19-4a40.81,40.81,0,0,0-4.81-19.19.55.55,0,0,1,0-.4.57.57,0,0,1,.26-.31.55.55,0,0,1,.4,0,.53.53,0,0,1,.31.26,41.94,41.94,0,0,1,4.93,19.68c0,1.37-.07,2.75-.2,4.09A.51.51,0,0,1,159.57,140.83Zm-4.67-24.22-.11,0a.26.26,0,0,0-.11.14.21.21,0,0,0,0,.17,41.13,41.13,0,0,1,4.84,19.33c0,1.35-.06,2.7-.19,4a.18.18,0,0,0,.05.16.19.19,0,0,0,.15.08l0,.15v-.15a.22.22,0,0,0,.23-.2c.13-1.33.19-2.7.19-4.06a41.62,41.62,0,0,0-4.89-19.54.19.19,0,0,0-.14-.11Z" transform="translate(-6.24 -56.92)"/><path class="cls-2" d="M147.69,165.8a.35.35,0,0,1-.27-.11.37.37,0,0,1,0-.53,41.07,41.07,0,0,0,10.21-17,.38.38,0,1,1,.72.22A41.67,41.67,0,0,1,148,165.69.34.34,0,0,1,147.69,165.8Z" transform="translate(-6.24 -56.92)"/><path class="cls-2" d="M147.69,166a.5.5,0,0,1-.37-.15.51.51,0,0,1,0-.74,40.94,40.94,0,0,0,10.17-17,.53.53,0,0,1,.26-.31.48.48,0,0,1,.39,0,.51.51,0,0,1,.35.65,42,42,0,0,1-10.43,17.41A.51.51,0,0,1,147.69,166ZM158,148a.18.18,0,0,0-.1,0,.19.19,0,0,0-.11.14,41.26,41.26,0,0,1-10.25,17.09.22.22,0,0,0,0,.32.24.24,0,0,0,.32,0,41.71,41.71,0,0,0,10.36-17.28.24.24,0,0,0-.15-.29Z" transform="translate(-6.24 -56.92)"/><path class="cls-2" d="M138,173a.37.37,0,0,1-.17-.7,40.47,40.47,0,0,0,6.66-4.45.37.37,0,1,1,.48.57,40.81,40.81,0,0,1-6.79,4.54A.39.39,0,0,1,138,173Z" transform="translate(-6.24 -56.92)"/><path class="cls-2" d="M138,173.16a.53.53,0,0,1-.46-.28.55.55,0,0,1,0-.4.57.57,0,0,1,.26-.31,39.49,39.49,0,0,0,6.63-4.43.53.53,0,0,1,.74.07.55.55,0,0,1,.12.39.51.51,0,0,1-.19.35,41.66,41.66,0,0,1-6.81,4.55A.54.54,0,0,1,138,173.16Zm6.73-5.24a.3.3,0,0,0-.15.05,40.75,40.75,0,0,1-6.68,4.47.24.24,0,0,0-.11.13.2.2,0,0,0,0,.17.23.23,0,0,0,.3.1,41.07,41.07,0,0,0,6.76-4.52.19.19,0,0,0,.08-.15.22.22,0,0,0,0-.17A.23.23,0,0,0,144.69,167.92Z" transform="translate(-6.24 -56.92)"/><path class="cls-2" d="M118.52,177.88A41.93,41.93,0,0,1,98.9,173a.38.38,0,0,1,.36-.66,41.16,41.16,0,0,0,19.26,4.82c1.34,0,2.69-.06,4-.19a.37.37,0,0,1,.41.34.38.38,0,0,1-.33.41C121.26,177.82,119.88,177.88,118.52,177.88Z" transform="translate(-6.24 -56.92)"/><path class="cls-2" d="M118.52,178a42,42,0,0,1-19.69-4.93.55.55,0,0,1-.25-.31.51.51,0,0,1,0-.4.49.49,0,0,1,.31-.25.51.51,0,0,1,.4,0A40.84,40.84,0,0,0,118.52,177c1.34,0,2.68-.06,4-.19a.57.57,0,0,1,.38.11.52.52,0,0,1,.19.36.5.5,0,0,1-.47.57C121.27,178,119.89,178,118.52,178Zm-19.44-5.62H99a.28.28,0,0,0-.13.11.25.25,0,0,0,0,.17.26.26,0,0,0,.11.14,41.75,41.75,0,0,0,19.55,4.89c1.36,0,2.73-.06,4.07-.19a.3.3,0,0,0,.16-.08.34.34,0,0,0,0-.17.26.26,0,0,0-.09-.16.22.22,0,0,0-.16,0c-1.33.13-2.68.19-4,.19a41.19,41.19,0,0,1-19.33-4.84A.23.23,0,0,0,99.08,172.41Z" transform="translate(-6.24 -56.92)"/><path class="cls-2" d="M92.36,168.52a.41.41,0,0,1-.24-.08,41.39,41.39,0,0,1-10.3-12.55.38.38,0,1,1,.66-.36A40.63,40.63,0,0,0,92.6,167.86a.37.37,0,0,1,.05.52A.38.38,0,0,1,92.36,168.52Z" transform="translate(-6.24 -56.92)"/><path class="cls-2" d="M92.36,168.67a.5.5,0,0,1-.33-.12A41.41,41.41,0,0,1,81.69,156a.52.52,0,1,1,.92-.5,40.34,40.34,0,0,0,10.08,12.28.53.53,0,0,1-.33.93ZM82.15,155.48a.23.23,0,0,0-.2.34,41.21,41.21,0,0,0,10.26,12.5.2.2,0,0,0,.32,0,.22.22,0,0,0,0-.32A40.62,40.62,0,0,1,82.35,155.6.24.24,0,0,0,82.15,155.48Z" transform="translate(-6.24 -56.92)"/><path class="cls-2" d="M80.42,152.43a.38.38,0,0,1-.35-.24,41.49,41.49,0,0,1-3.17-15.92.38.38,0,0,1,.75,0,40.79,40.79,0,0,0,3.11,15.64.37.37,0,0,1-.2.49Z" transform="translate(-6.24 -56.92)"/><path class="cls-2" d="M80.42,152.58a.52.52,0,0,1-.49-.33,41.61,41.61,0,0,1-3.18-16,.52.52,0,0,1,.53-.52.52.52,0,0,1,.52.52,40.48,40.48,0,0,0,3.1,15.58.54.54,0,0,1-.28.69A.71.71,0,0,1,80.42,152.58ZM77.28,136a.23.23,0,0,0-.23.23,41.27,41.27,0,0,0,3.16,15.87.22.22,0,0,0,.29.12.24.24,0,0,0,.13-.3,40.72,40.72,0,0,1-3.13-15.69A.23.23,0,0,0,77.28,136Z" transform="translate(-6.24 -56.92)"/><path class="cls-2" d="M78.08,128.6H78a.37.37,0,0,1-.3-.44,41.1,41.1,0,0,1,6.21-15,.37.37,0,0,1,.52-.1.38.38,0,0,1,.1.52,40.47,40.47,0,0,0-6.09,14.73A.38.38,0,0,1,78.08,128.6Z" transform="translate(-6.24 -56.92)"/><path class="cls-2" d="M78.08,128.75H78a.49.49,0,0,1-.34-.22.59.59,0,0,1-.08-.39,41.54,41.54,0,0,1,6.23-15.06.55.55,0,0,1,.33-.23.62.62,0,0,1,.4.08.53.53,0,0,1,.14.73,40.48,40.48,0,0,0-6.07,14.68A.51.51,0,0,1,78.08,128.75Zm6.15-15.62h0a.19.19,0,0,0-.14.09,41.22,41.22,0,0,0-6.18,15,.2.2,0,0,0,0,.17.21.21,0,0,0,.15.09.22.22,0,0,0,.26-.18,40.81,40.81,0,0,1,6.12-14.79.23.23,0,0,0-.07-.31A.28.28,0,0,0,84.23,113.13Z" transform="translate(-6.24 -56.92)"/><path class="cls-2" d="M86.64,110.49a.38.38,0,0,1-.29-.62A41.47,41.47,0,0,1,98.9,99.57a.39.39,0,0,1,.51.16.38.38,0,0,1-.15.51,40.27,40.27,0,0,0-12.33,10.11A.37.37,0,0,1,86.64,110.49Z" transform="translate(-6.24 -56.92)"/><path class="cls-2" d="M86.64,110.64a.55.55,0,0,1-.33-.12.53.53,0,0,1-.07-.74A41.22,41.22,0,0,1,98.83,99.44a.56.56,0,0,1,.4,0,.54.54,0,0,1,.31.26.5.5,0,0,1,0,.4.55.55,0,0,1-.25.31,40.09,40.09,0,0,0-12.28,10.07A.51.51,0,0,1,86.64,110.64Zm12.44-11a.23.23,0,0,0-.11,0A41,41,0,0,0,86.47,110a.22.22,0,0,0,0,.32.24.24,0,0,0,.32,0A40.46,40.46,0,0,1,99.19,100.1a.21.21,0,0,0,.11-.13.25.25,0,0,0,0-.17.28.28,0,0,0-.13-.11Z" transform="translate(-6.24 -56.92)"/><path class="cls-2" d="M108.29,91.53a.42.42,0,0,1-.34-.32.43.43,0,0,1,.32-.51,46.58,46.58,0,0,1,18.22-.45c1.5.26,3,.6,4.48,1a.42.42,0,0,1,.29.52.42.42,0,0,1-.51.29,44.51,44.51,0,0,0-4.41-1,45.86,45.86,0,0,0-17.89.44A.29.29,0,0,1,108.29,91.53Z" transform="translate(-6.24 -56.92)"/><path class="cls-2" d="M153.49,106.44a.4.4,0,0,1-.25-.14A45.85,45.85,0,0,0,135,93.47a.41.41,0,0,1-.24-.54.41.41,0,0,1,.54-.24,46.74,46.74,0,0,1,18.56,13.06.44.44,0,0,1,0,.6A.45.45,0,0,1,153.49,106.44Z" transform="translate(-6.24 -56.92)"/><path class="cls-2" d="M158.73,113.86a.39.39,0,0,1-.29-.21c-.73-1.27-1.54-2.55-2.42-3.8a.42.42,0,0,1,.1-.59.42.42,0,0,1,.58.1c.9,1.28,1.73,2.58,2.47,3.88a.43.43,0,0,1-.16.57A.47.47,0,0,1,158.73,113.86Z" transform="translate(-6.24 -56.92)"/><path class="cls-2" d="M163.08,149h0a.41.41,0,0,1-.29-.52,44.41,44.41,0,0,0,1-4.39,45.91,45.91,0,0,0-1.65-22.22.42.42,0,0,1,.27-.53.41.41,0,0,1,.53.26,46.76,46.76,0,0,1,1.68,22.64c-.26,1.51-.59,3-1,4.47A.42.42,0,0,1,163.08,149Z" transform="translate(-6.24 -56.92)"/><path class="cls-2" d="M145.12,174.52a.44.44,0,0,1-.27-.18.42.42,0,0,1,.1-.58,46.13,46.13,0,0,0,14.56-16.88.42.42,0,0,1,.56-.19.43.43,0,0,1,.19.57,47,47,0,0,1-14.82,17.19A.46.46,0,0,1,145.12,174.52Z" transform="translate(-6.24 -56.92)"/><path class="cls-2" d="M133,180.63a.42.42,0,0,1-.06-.82,44.93,44.93,0,0,0,8.22-3.64.41.41,0,0,1,.57.15.42.42,0,0,1-.15.58,46.91,46.91,0,0,1-8.37,3.71A.38.38,0,0,1,133,180.63Z" transform="translate(-6.24 -56.92)"/><path class="cls-2" d="M110.56,182.29A46.92,46.92,0,0,1,89.8,173.1a.42.42,0,1,1,.52-.66,46.16,46.16,0,0,0,20.38,9c1.48.26,3,.45,4.48.56a.41.41,0,0,1,.38.45.42.42,0,0,1-.45.39C113.6,182.74,112.06,182.55,110.56,182.29Z" transform="translate(-6.24 -56.92)"/><path class="cls-2" d="M83.41,166.93a.45.45,0,0,1-.25-.14,46.44,46.44,0,0,1-9-15.85.42.42,0,0,1,.27-.53.41.41,0,0,1,.53.27,45.62,45.62,0,0,0,8.83,15.56.42.42,0,0,1,0,.59A.42.42,0,0,1,83.41,166.93Z" transform="translate(-6.24 -56.92)"/><path class="cls-2" d="M73.28,146.84a.39.39,0,0,1-.33-.32,46.39,46.39,0,0,1-.46-18.22.42.42,0,1,1,.83.15,45.68,45.68,0,0,0,.45,17.89.42.42,0,0,1-.32.5Z" transform="translate(-6.24 -56.92)"/><path class="cls-2" d="M75.26,120.05l-.08,0a.42.42,0,0,1-.24-.55,46.36,46.36,0,0,1,9.73-15.41.43.43,0,0,1,.6,0,.41.41,0,0,1,0,.59,45.76,45.76,0,0,0-9.56,15.14A.42.42,0,0,1,75.26,120.05Z" transform="translate(-6.24 -56.92)"/><path class="cls-2" d="M88.2,101.65a.45.45,0,0,1-.25-.14.42.42,0,0,1,0-.59,46.28,46.28,0,0,1,15.86-9,.42.42,0,1,1,.26.8,45.52,45.52,0,0,0-15.57,8.82A.39.39,0,0,1,88.2,101.65Z" transform="translate(-6.24 -56.92)"/><path class="cls-2" d="M83.2,172.35a.48.48,0,0,1-.09.51.47.47,0,0,1-.66,0A51.11,51.11,0,0,1,71.2,156.27c-.66-1.55-1.24-3.14-1.74-4.74a.46.46,0,1,1,.88-.27c.49,1.56,1.07,3.13,1.71,4.65a50.44,50.44,0,0,0,11,16.3A.33.33,0,0,1,83.2,172.35Z" transform="translate(-6.24 -56.92)"/><path class="cls-2" d="M70.12,121.65a.5.5,0,0,1,0,.32,50.53,50.53,0,0,0-1,24.49.46.46,0,1,1-.9.19,51.42,51.42,0,0,1,1-25,.47.47,0,0,1,.58-.31A.44.44,0,0,1,70.12,121.65Z" transform="translate(-6.24 -56.92)"/><path class="cls-2" d="M73.87,112.39a.51.51,0,0,1,0,.4,48.88,48.88,0,0,0-2.08,4.5.46.46,0,1,1-.86-.35c.64-1.59,1.36-3.13,2.12-4.58a.46.46,0,0,1,.83,0Z" transform="translate(-6.24 -56.92)"/><path class="cls-2" d="M103.82,87.47s0,0,0,0a.46.46,0,0,1-.3.58c-1.56.49-3.12,1.06-4.65,1.7A50.66,50.66,0,0,0,79.3,104.54a.46.46,0,0,1-.72-.58,51.53,51.53,0,0,1,19.94-15c1.56-.66,3.15-1.24,4.73-1.73A.47.47,0,0,1,103.82,87.47Z" transform="translate(-6.24 -56.92)"/><path class="cls-2" d="M138.1,88.92a.47.47,0,0,1-.6.61,50.6,50.6,0,0,0-24.28-3.43.48.48,0,0,1-.51-.42.47.47,0,0,1,.41-.51,51.59,51.59,0,0,1,24.73,3.5A.51.51,0,0,1,138.1,88.92Z" transform="translate(-6.24 -56.92)"/><path class="cls-2" d="M151,96.51a.48.48,0,0,1-.07.47.46.46,0,0,1-.65.07A50.16,50.16,0,0,0,142,91.61a.46.46,0,0,1-.2-.62.47.47,0,0,1,.63-.2,50.51,50.51,0,0,1,8.41,5.54A.49.49,0,0,1,151,96.51Z" transform="translate(-6.24 -56.92)"/><path class="cls-2" d="M165.85,116.28A51.69,51.69,0,0,1,169.69,141a.47.47,0,0,1-.93-.09A50.69,50.69,0,0,0,165,116.64c-.65-1.52-1.37-3-2.15-4.47a.46.46,0,0,1,.19-.63.46.46,0,0,1,.62.19C164.46,113.2,165.19,114.73,165.85,116.28Z" transform="translate(-6.24 -56.92)"/><path class="cls-2" d="M167.77,150.54a.47.47,0,0,1,0,.31,51.07,51.07,0,0,1-9.32,17.75.46.46,0,0,1-.65.07.47.47,0,0,1-.07-.66,49.88,49.88,0,0,0,9.15-17.42.46.46,0,0,1,.58-.31A.44.44,0,0,1,167.77,150.54Z" transform="translate(-6.24 -56.92)"/><path class="cls-2" d="M155.21,171.85a.46.46,0,0,1-.1.51,51.11,51.11,0,0,1-16.59,11.25.46.46,0,0,1-.6-.24.47.47,0,0,1,.24-.61,50.13,50.13,0,0,0,16.29-11,.47.47,0,0,1,.66,0Z" transform="translate(-6.24 -56.92)"/><path class="cls-2" d="M129.24,186a.29.29,0,0,1,0,.09.44.44,0,0,1-.36.54,51,51,0,0,1-20,.16.46.46,0,1,1,.17-.91,50.19,50.19,0,0,0,19.69-.15A.46.46,0,0,1,129.24,186Z" transform="translate(-6.24 -56.92)"/><path class="cls-2" d="M104.52,184.93a.41.41,0,0,1,0,.31.46.46,0,0,1-.57.31,50.94,50.94,0,0,1-17.75-9.33.46.46,0,1,1,.59-.71,49.81,49.81,0,0,0,17.42,9.15A.47.47,0,0,1,104.52,184.93Z" transform="translate(-6.24 -56.92)"/><path class="cls-2" d="M63.15,132a.49.49,0,0,1-.49.27.5.5,0,0,1-.47-.54,56.45,56.45,0,0,1,6.06-21.21c.84-1.65,1.78-3.27,2.77-4.81a.51.51,0,0,1,.7-.16.52.52,0,0,1,.16.71c-1,1.52-1.9,3.11-2.73,4.72a55.33,55.33,0,0,0-5.94,20.83A.6.6,0,0,1,63.15,132Z" transform="translate(-6.24 -56.92)"/><path class="cls-2" d="M96.7,85.13a.47.47,0,0,1-.25.23,55.5,55.5,0,0,0-21.4,16.42.51.51,0,0,1-.71.08.52.52,0,0,1-.09-.72A56.69,56.69,0,0,1,96,84.43a.51.51,0,0,1,.67.27A.47.47,0,0,1,96.7,85.13Z" transform="translate(-6.24 -56.92)"/><path class="cls-2" d="M107.16,81.76a.5.5,0,0,1-.35.26c-1.73.38-3.5.86-5.27,1.42a.51.51,0,0,1-.64-.32.52.52,0,0,1,.33-.64c1.8-.58,3.61-1.07,5.36-1.45a.51.51,0,0,1,.61.39A.49.49,0,0,1,107.16,81.76Z" transform="translate(-6.24 -56.92)"/><path class="cls-2" d="M149.32,89.43s0,0,0,0a.52.52,0,0,1-.71.15c-1.5-1-3.09-1.88-4.71-2.71a55.62,55.62,0,0,0-26.27-6.12.51.51,0,0,1,0-1A56.69,56.69,0,0,1,144.34,86c1.65.85,3.27,1.78,4.8,2.77A.5.5,0,0,1,149.32,89.43Z" transform="translate(-6.24 -56.92)"/><path class="cls-2" d="M172.3,119.37a.5.5,0,0,1-.3.25.5.5,0,0,1-.64-.32,55.77,55.77,0,0,0-14.24-22.91.51.51,0,1,1,.71-.73A56.82,56.82,0,0,1,172.33,119,.52.52,0,0,1,172.3,119.37Z" transform="translate(-6.24 -56.92)"/><path class="cls-2" d="M175,135.59a.51.51,0,0,1-1-.23,54.77,54.77,0,0,0-1.24-10.8.51.51,0,0,1,.39-.61.5.5,0,0,1,.6.39,55.4,55.4,0,0,1,1.27,11A.48.48,0,0,1,175,135.59Z" transform="translate(-6.24 -56.92)"/><path class="cls-2" d="M168.8,162.1a56.88,56.88,0,0,1-18.11,20.65.51.51,0,1,1-.58-.83,56,56,0,0,0,17.78-20.28c.83-1.62,1.59-3.29,2.26-5a.51.51,0,1,1,.94.37C170.41,158.75,169.64,160.46,168.8,162.1Z" transform="translate(-6.24 -56.92)"/><path class="cls-2" d="M141.25,187.9a.49.49,0,0,1-.25.24,56,56,0,0,1-21.55,4.66.51.51,0,1,1,0-1,55,55,0,0,0,21.17-4.58.52.52,0,0,1,.67.27A.5.5,0,0,1,141.25,187.9Z" transform="translate(-6.24 -56.92)"/><path class="cls-2" d="M114.4,192.35a.51.51,0,0,1-.5.27,56.31,56.31,0,0,1-21.2-6.05.51.51,0,1,1,.47-.91,55.42,55.42,0,0,0,20.82,6,.49.49,0,0,1,.46.54A.46.46,0,0,1,114.4,192.35Z" transform="translate(-6.24 -56.92)"/><path class="cls-2" d="M84.17,180.39a.24.24,0,0,1-.06.08.5.5,0,0,1-.71.09,56,56,0,0,1-14.28-16.81.51.51,0,1,1,.89-.49,55.07,55.07,0,0,0,14,16.5A.51.51,0,0,1,84.17,180.39Z" transform="translate(-6.24 -56.92)"/><path class="cls-2" d="M67.59,158.81a.51.51,0,0,1-.92,0A56,56,0,0,1,62,137.22a.52.52,0,0,1,.51-.52.5.5,0,0,1,.51.5,55,55,0,0,0,4.57,21.17A.49.49,0,0,1,67.59,158.81Z" transform="translate(-6.24 -56.92)"/><path class="cls-2" d="M126,101a.32.32,0,0,1-.14-.34.33.33,0,0,1,.4-.25,36.6,36.6,0,0,1,13.13,5.7c1,.68,2,1.42,2.87,2.19a.34.34,0,0,1,0,.47.33.33,0,0,1-.47,0c-.9-.76-1.84-1.49-2.81-2.16a36.08,36.08,0,0,0-12.9-5.6A.22.22,0,0,1,126,101Z" transform="translate(-6.24 -56.92)"/><path class="cls-2" d="M142.06,109a.52.52,0,0,1-.31-.12c-.89-.75-1.83-1.48-2.8-2.15a35.88,35.88,0,0,0-12.85-5.57.38.38,0,0,1-.17-.08.47.47,0,0,1-.19-.49.43.43,0,0,1,.21-.3.45.45,0,0,1,.36-.07A36.76,36.76,0,0,1,139.5,106c1,.68,2,1.43,2.87,2.2a.46.46,0,0,1,.17.32.48.48,0,0,1-.11.35.47.47,0,0,1-.33.17Zm-15.85-8.49a.17.17,0,0,0-.1,0,.15.15,0,0,0-.08.11.18.18,0,0,0,.07.19h0l.07,0a36.1,36.1,0,0,1,13,5.62,35.21,35.21,0,0,1,2.83,2.16.14.14,0,0,0,.13,0,.19.19,0,0,0,.12-.07.19.19,0,0,0,.05-.13.19.19,0,0,0-.07-.12,35.87,35.87,0,0,0-2.85-2.19,36.55,36.55,0,0,0-13.09-5.68Z" transform="translate(-6.24 -56.92)"/><path class="cls-2" d="M153.31,126.57a.34.34,0,0,1-.13-.18,36.08,36.08,0,0,0-8.75-15.17.34.34,0,0,1,0-.47.33.33,0,0,1,.47,0,36.79,36.79,0,0,1,8.91,15.45.34.34,0,0,1-.23.41A.39.39,0,0,1,153.31,126.57Z" transform="translate(-6.24 -56.92)"/><path class="cls-2" d="M153.5,126.78a.49.49,0,0,1-.28-.09.44.44,0,0,1-.18-.26,36,36,0,0,0-8.71-15.11.48.48,0,0,1,0-.68.49.49,0,0,1,.33-.13h0a.44.44,0,0,1,.33.14,37,37,0,0,1,9,15.52.48.48,0,0,1-.33.59Zm-8.83-16a.17.17,0,0,0-.13,0,.18.18,0,0,0,0,.25,36.28,36.28,0,0,1,8.78,15.24.23.23,0,0,0,.07.1h0a.18.18,0,0,0,.16,0,.18.18,0,0,0,.12-.22,36.51,36.51,0,0,0-8.87-15.39.19.19,0,0,0-.13,0Z" transform="translate(-6.24 -56.92)"/><path class="cls-2" d="M154.59,133.59a.34.34,0,0,1-.14-.25,34.22,34.22,0,0,0-.47-3.51.33.33,0,0,1,.27-.38.32.32,0,0,1,.38.26c.22,1.21.38,2.42.48,3.58a.33.33,0,0,1-.3.36A.4.4,0,0,1,154.59,133.59Z" transform="translate(-6.24 -56.92)"/><path class="cls-2" d="M154.78,133.8a.44.44,0,0,1-.27-.09h0a.47.47,0,0,1-.21-.35c-.09-1.14-.25-2.32-.46-3.5a.46.46,0,0,1,.07-.36.53.53,0,0,1,.31-.2.5.5,0,0,1,.36.08.44.44,0,0,1,.2.31c.22,1.21.38,2.42.48,3.59a.49.49,0,0,1-.44.52Zm-.47-4.21h0a.2.2,0,0,0-.12.08.17.17,0,0,0,0,.14c.22,1.19.37,2.37.47,3.52a.16.16,0,0,0,.08.14h0a.21.21,0,0,0,.12,0,.18.18,0,0,0,.16-.2c-.1-1.16-.25-2.36-.47-3.56a.2.2,0,0,0-.08-.12A.17.17,0,0,0,154.31,129.59Z" transform="translate(-6.24 -56.92)"/><path class="cls-2" d="M146.07,160.08l0,0a.32.32,0,0,1,0-.46,35.21,35.21,0,0,0,2.14-2.81,36.09,36.09,0,0,0,6.18-16.39.33.33,0,0,1,.36-.29.34.34,0,0,1,.29.37,36.83,36.83,0,0,1-6.28,16.69c-.69,1-1.42,2-2.19,2.86A.33.33,0,0,1,146.07,160.08Z" transform="translate(-6.24 -56.92)"/><path class="cls-2" d="M146.26,160.29a.5.5,0,0,1-.27-.08l-.05,0a.47.47,0,0,1-.16-.32.49.49,0,0,1,.11-.35,34.87,34.87,0,0,0,2.14-2.79,36.05,36.05,0,0,0,6.15-16.32.48.48,0,1,1,.95.11,36.87,36.87,0,0,1-6.31,16.75c-.69,1-1.43,2-2.2,2.87A.48.48,0,0,1,146.26,160.29Zm8.4-20a.19.19,0,0,0-.19.16,36.33,36.33,0,0,1-6.19,16.46c-.68,1-1.41,1.92-2.16,2.81a.18.18,0,0,0,0,.14.16.16,0,0,0,.06.12h0a.2.2,0,0,0,.25,0c.76-.9,1.49-1.86,2.18-2.84a36.89,36.89,0,0,0,6.26-16.63.18.18,0,0,0-.16-.2Z" transform="translate(-6.24 -56.92)"/><path class="cls-2" d="M124.84,172.33a.34.34,0,0,1-.14-.21.34.34,0,0,1,.27-.39,36.15,36.15,0,0,0,15.95-7.22.34.34,0,0,1,.47.05.33.33,0,0,1-.06.47,36.72,36.72,0,0,1-16.25,7.35A.29.29,0,0,1,124.84,172.33Z" transform="translate(-6.24 -56.92)"/><path class="cls-2" d="M125,172.54a.46.46,0,0,1-.27-.09.51.51,0,0,1-.2-.31.48.48,0,0,1,.39-.55,36,36,0,0,0,15.89-7.2.49.49,0,0,1,.67.08.5.5,0,0,1-.07.68,37.08,37.08,0,0,1-16.32,7.38Zm16.11-7.95a.19.19,0,0,0-.12,0,36.36,36.36,0,0,1-16,7.25.17.17,0,0,0-.14.21.15.15,0,0,0,.07.12.22.22,0,0,0,.14,0,36.75,36.75,0,0,0,16.18-7.33.19.19,0,0,0,.07-.12.2.2,0,0,0,0-.13A.16.16,0,0,0,141.13,164.59Z" transform="translate(-6.24 -56.92)"/><path class="cls-2" d="M114.17,172.67a.3.3,0,0,1-.14-.31.33.33,0,0,1,.36-.29,34.78,34.78,0,0,0,7.07.12.34.34,0,0,1,.36.3.33.33,0,0,1-.31.36,36,36,0,0,1-7.19-.12A.34.34,0,0,1,114.17,172.67Z" transform="translate(-6.24 -56.92)"/><path class="cls-2" d="M118.51,173.12a36.87,36.87,0,0,1-4.21-.24.58.58,0,0,1-.22-.08h0a.48.48,0,0,1,0-.77.44.44,0,0,1,.35-.1,35.22,35.22,0,0,0,7,.11.47.47,0,0,1,.35.12.48.48,0,0,1,0,.67.46.46,0,0,1-.32.17C120.52,173.08,119.52,173.12,118.51,173.12Zm-4.15-.9a.19.19,0,0,0-.12,0,.17.17,0,0,0-.06.12.18.18,0,0,0,.07.17h0a.13.13,0,0,0,.08,0,35.78,35.78,0,0,0,7.17.12.18.18,0,0,0,.13-.06.22.22,0,0,0,0-.13.21.21,0,0,0-.07-.13.18.18,0,0,0-.13,0,35,35,0,0,1-7.09-.12Z" transform="translate(-6.24 -56.92)"/><path class="cls-2" d="M97.62,166.44A36.78,36.78,0,0,1,85.87,153a.33.33,0,0,1,.14-.45.34.34,0,0,1,.45.15A36.16,36.16,0,0,0,98,165.9c1,.67,2,1.3,3,1.87a.34.34,0,0,1,.13.45.33.33,0,0,1-.45.13A34.86,34.86,0,0,1,97.62,166.44Z" transform="translate(-6.24 -56.92)"/><path class="cls-2" d="M100.85,168.54a.53.53,0,0,1-.24-.06c-1-.58-2.08-1.23-3.07-1.91h0A37.11,37.11,0,0,1,85.73,153.1a.49.49,0,0,1,.21-.65.48.48,0,0,1,.65.21,36.07,36.07,0,0,0,11.5,13.12c1,.67,2,1.29,3,1.86a.51.51,0,0,1,.23.29.53.53,0,0,1,0,.37.49.49,0,0,1-.29.22A.32.32,0,0,1,100.85,168.54ZM86.16,152.69l-.08,0A.19.19,0,0,0,86,153a36.6,36.6,0,0,0,11.71,13.36h0c1,.68,2,1.32,3.05,1.9a.17.17,0,0,0,.14,0,.31.31,0,0,0,.11-.09.17.17,0,0,0,0-.14.16.16,0,0,0-.08-.1c-1-.58-2-1.21-3-1.89a36.34,36.34,0,0,1-11.6-13.23.22.22,0,0,0-.1-.09Z" transform="translate(-6.24 -56.92)"/><path class="cls-2" d="M83.35,146.52a.43.43,0,0,1-.13-.19,36.44,36.44,0,0,1-1.16-14.27.33.33,0,0,1,.36-.29.34.34,0,0,1,.29.37,35.71,35.71,0,0,0,1.15,14,.33.33,0,0,1-.23.41A.34.34,0,0,1,83.35,146.52Z" transform="translate(-6.24 -56.92)"/><path class="cls-2" d="M83.54,146.72a.53.53,0,0,1-.27-.08.49.49,0,0,1-.19-.26,36.57,36.57,0,0,1-1.17-14.33.44.44,0,0,1,.18-.32.46.46,0,0,1,.67.07.47.47,0,0,1,.1.36,35.59,35.59,0,0,0,1.14,14,.48.48,0,0,1-.33.6Zm-1.16-14.8a.15.15,0,0,0-.11,0,.19.19,0,0,0-.07.12,36.35,36.35,0,0,0,1.17,14.21.14.14,0,0,0,.07.1h0a.2.2,0,0,0,.15,0,.19.19,0,0,0,.13-.23,35.62,35.62,0,0,1-1.15-14.07.2.2,0,0,0,0-.13.21.21,0,0,0-.12-.07Z" transform="translate(-6.24 -56.92)"/><path class="cls-2" d="M82.78,128.85a.32.32,0,0,1-.14-.34,36.72,36.72,0,0,1,5.7-13.14.33.33,0,0,1,.46-.08.34.34,0,0,1,.09.46,35.75,35.75,0,0,0-5.6,12.9.33.33,0,0,1-.39.25A.33.33,0,0,1,82.78,128.85Z" transform="translate(-6.24 -56.92)"/><path class="cls-2" d="M83,129.06h-.1a.65.65,0,0,1-.17-.08h0a.47.47,0,0,1-.19-.49,36.57,36.57,0,0,1,5.72-13.19.44.44,0,0,1,.31-.2.47.47,0,0,1,.36.08.48.48,0,0,1,.12.66,35.9,35.9,0,0,0-5.58,12.85A.47.47,0,0,1,83,129.06Zm-.1-.33.07,0a.19.19,0,0,0,.21-.14,36.25,36.25,0,0,1,5.62-13,.18.18,0,0,0,0-.25.17.17,0,0,0-.14,0,.2.2,0,0,0-.12.08,36.38,36.38,0,0,0-5.67,13.08A.18.18,0,0,0,82.86,128.73Z" transform="translate(-6.24 -56.92)"/><path class="cls-2" d="M93,110.4l-.05,0a.34.34,0,0,1,0-.47,36.46,36.46,0,0,1,12-7.76.33.33,0,0,1,.43.18.34.34,0,0,1-.19.43,35.75,35.75,0,0,0-11.82,7.63A.33.33,0,0,1,93,110.4Z" transform="translate(-6.24 -56.92)"/><path class="cls-2" d="M93.23,110.61a.53.53,0,0,1-.27-.08h0l-.07-.06a.52.52,0,0,1-.14-.35.48.48,0,0,1,.15-.33A36.48,36.48,0,0,1,105,102a.44.44,0,0,1,.37,0,.43.43,0,0,1,.25.26.48.48,0,0,1,0,.37.51.51,0,0,1-.27.25,35.57,35.57,0,0,0-11.76,7.6A.55.55,0,0,1,93.23,110.61Zm-.1-.33a.18.18,0,0,0,.23,0,35.81,35.81,0,0,1,11.86-7.65.16.16,0,0,0,.1-.1.17.17,0,0,0,0-.14.17.17,0,0,0-.1-.1.17.17,0,0,0-.14,0,36.12,36.12,0,0,0-12,7.73.18.18,0,0,0,0,.26Z" transform="translate(-6.24 -56.92)"/><path class="cls-2" d="M108.35,101.57a.36.36,0,0,1-.13-.19.32.32,0,0,1,.23-.4,36.21,36.21,0,0,1,14.27-1.17.34.34,0,0,1,.29.37.33.33,0,0,1-.37.29,35.66,35.66,0,0,0-14,1.14A.34.34,0,0,1,108.35,101.57Z" transform="translate(-6.24 -56.92)"/><path class="cls-2" d="M108.54,101.77a.5.5,0,0,1-.27-.08h0a.48.48,0,0,1-.19-.26.49.49,0,0,1,.33-.6,36.51,36.51,0,0,1,14.33-1.17.49.49,0,0,1,.32.18.51.51,0,0,1,.1.36.48.48,0,0,1-.53.42,35.58,35.58,0,0,0-14,1.13A.3.3,0,0,1,108.54,101.77Zm-.11-.33a.23.23,0,0,0,.16,0,35.78,35.78,0,0,1,14.07-1.15.18.18,0,0,0,.2-.16.14.14,0,0,0,0-.13.17.17,0,0,0-.13-.07,36.11,36.11,0,0,0-14.21,1.16.19.19,0,0,0-.13.22A.21.21,0,0,0,108.43,101.44Z" transform="translate(-6.24 -56.92)"/></g><ellipse class="cls-3" cx="112.28" cy="79.32" rx="31.4" ry="30.52"/><path class="cls-4" d="M118.52,167.64c-17.81,0-32.3-14.09-32.3-31.41s14.49-31.41,32.3-31.41,32.29,14.09,32.29,31.41S136.32,167.64,118.52,167.64Zm0-61C101.69,106.61,88,119.9,88,136.23s13.68,29.63,30.51,29.63S149,152.57,149,136.23,135.34,106.61,118.52,106.61Z" transform="translate(-6.24 -56.92)"/><path class="cls-5" d="M79,154.9V95.56s-2-7.75-9.3-7.75-8.41,8.41-8.41,8.41V148.7s-1.11,7.09-12.18,7.53S36.08,145.6,36.08,145.6V108.84s-1.77-7.75-9.3-8-8.86,8.86-8.86,8.86v36.53C20.14,164.42,33,172,44.5,173.06s16.38-3.32,16.38-3.32V199H79V154.9Z" transform="translate(-6.24 -56.92)"/><path class="cls-5" d="M217.1,154.9V95.56s-2-7.75-9.3-7.75-8.41,8.41-8.41,8.41V148.7s-1.11,7.09-12.18,7.53-13.06-10.63-13.06-10.63V108.84s-1.78-7.75-9.3-8-8.86,8.86-8.86,8.86v36.53c2.21,18.16,15.06,25.69,26.57,26.8S199,169.74,199,169.74V199H217.1V154.9Z" transform="translate(-6.24 -56.92)"/><path class="cls-6" d="M79,154.9V95.56s-2-7.75-9.3-7.75-8.41,8.41-8.41,8.41V148.7s-1.11,7.09-12.18,7.53S36.08,145.6,36.08,145.6V108.84s-1.77-7.75-9.3-8-8.86,8.86-8.86,8.86v36.53C20.14,164.42,33,172,44.5,173.06s16.38-3.32,16.38-3.32V199H79V154.9Z" transform="translate(-6.24 -56.92)"/><polyline class="cls-7" points="73.67 96.85 73.67 143.25 72.19 143.25 72.17 95.36"/><path class="cls-8" d="M61.39,148.09" transform="translate(-6.24 -56.92)"/><path class="cls-9" d="M52.09,151.58" transform="translate(-6.24 -56.92)"/><path class="cls-9" d="M56.8,171.73" transform="translate(-6.24 -56.92)"/><path class="cls-7" d="M62,200.17H60.51V180.39l-.07-9.12c-6.33,3.87-17.09,2.5-17.57,2.44a30,30,0,0,1-25.17-27.9c0-.3-.05-.64-.05-1v-35A9.37,9.37,0,0,1,27,100.52h.39a9.37,9.37,0,0,1,9.36,9.36v35c0,.18,0,.36,0,.54a10.85,10.85,0,0,0,6.52,8.79,19.58,19.58,0,0,0,6.64,1.12,11.69,11.69,0,0,0,10.54-5.93l.07-2.63V96.84a9.37,9.37,0,0,1,9.35-9.36h.7a9.36,9.36,0,0,1,9.35,9.36V155.4H78.43V96.84A7.88,7.88,0,0,0,70.56,89h-.7A7.88,7.88,0,0,0,62,96.84v49.92l-.09,3-.09.17c-6.12,10.62-19,5.65-19.13,5.6a12.37,12.37,0,0,1-7.44-10.08v-.13c0-.16,0-.33,0-.5v-35A7.88,7.88,0,0,0,27.4,102H27a7.88,7.88,0,0,0-7.87,7.87v35a6.1,6.1,0,0,0,.05.84,28.5,28.5,0,0,0,23.89,26.55c.1,0,12.08,1.53,17.62-3l1.21-1L62,180.38Z" transform="translate(-6.24 -56.92)"/><path class="cls-7" d="M65.62,147.71a.45.45,0,0,1-.44-.45V98.55c.22-8.14,4.29-10.61,4.46-10.71a.45.45,0,1,1,.45.77s-3.81,2.36-4,10v48.7A.45.45,0,0,1,65.62,147.71Z" transform="translate(-6.24 -56.92)"/><path class="cls-7" d="M65.62,200.39a.44.44,0,0,1-.44-.44V172.5a.45.45,0,0,1,.89,0V200A.45.45,0,0,1,65.62,200.39Z" transform="translate(-6.24 -56.92)"/><path class="cls-7" d="M75,200.39a.44.44,0,0,1-.44-.44V174.33a.45.45,0,1,1,.89,0V200A.45.45,0,0,1,75,200.39Z" transform="translate(-6.24 -56.92)"/><path class="cls-7" d="M75,169.12a.45.45,0,0,1-.44-.45V98.55c-.21-7.58-4-9.92-4-9.94a.44.44,0,0,1-.15-.61.45.45,0,0,1,.61-.16c.17.1,4.23,2.57,4.46,10.69v70.14A.45.45,0,0,1,75,169.12Z" transform="translate(-6.24 -56.92)"/><path class="cls-7" d="M70.33,179.59a.45.45,0,0,1-.45-.44V88.47a.45.45,0,1,1,.89,0v90.68A.44.44,0,0,1,70.33,179.59Z" transform="translate(-6.24 -56.92)"/><path class="cls-7" d="M70.49,200.35a.44.44,0,0,1-.44-.44V184a.45.45,0,1,1,.89,0v15.92A.45.45,0,0,1,70.49,200.35Z" transform="translate(-6.24 -56.92)"/><path class="cls-9" d="M76.25,151" transform="translate(-6.24 -56.92)"/><path class="cls-9" d="M76,155.56" transform="translate(-6.24 -56.92)"/><path class="cls-9" d="M65,167.69" transform="translate(-6.24 -56.92)"/><path class="cls-9" d="M65.18,172.84" transform="translate(-6.24 -56.92)"/><path class="cls-7" d="M49.49,170.17a29.93,29.93,0,0,1-12.42-2.8c-9.57-4.33-13.24-13.28-14.64-20A34.67,34.67,0,0,1,22,142V111.83c.23-8.14,4.29-10.6,4.47-10.7a.44.44,0,0,1,.61.16.45.45,0,0,1-.16.61c-.06,0-3.81,2.38-4,9.94V142a34.34,34.34,0,0,0,.42,5.22c1.36,6.54,4.91,15.21,14.14,19.39a28,28,0,0,0,15.41,2.49,19.51,19.51,0,0,0,6.22-1.81.45.45,0,0,1,.44.78A20,20,0,0,1,53,169.93,25.23,25.23,0,0,1,49.49,170.17Z" transform="translate(-6.24 -56.92)"/><path class="cls-7" d="M50.18,161.11a28.09,28.09,0,0,1-4.93-.46A16.24,16.24,0,0,1,31.5,146.71c-.11-.85-.13-4.12-.13-4.26V111.83c-.21-7.62-4-9.91-4-9.93a.45.45,0,0,1-.16-.61.44.44,0,0,1,.61-.16c.18.1,4.24,2.56,4.47,10.69v30.62s0,3.36.12,4.15a15.35,15.35,0,0,0,13,13.18c12.61,2.25,17.09-4.92,17.14-5a.44.44,0,0,1,.76.46C63.15,155.52,59.65,161.11,50.18,161.11Z" transform="translate(-6.24 -56.92)"/><path class="cls-7" d="M50.17,165.79a34.47,34.47,0,0,1-7.26-.82c-13.37-2.9-15.76-17.12-16-18.73-.2-1.45-.23-4.28-.23-4.4V101.76a.45.45,0,1,1,.89,0v40.08s0,2.88.23,4.28,2.51,15.2,15.29,18c7.37,1.6,12.52.46,15.54-.77a13.72,13.72,0,0,0,4.84-3.08.45.45,0,0,1,.63,0,.44.44,0,0,1,0,.63C63.94,161.09,59.68,165.79,50.17,165.79Z" transform="translate(-6.24 -56.92)"/><path class="cls-7" d="M65.34,156.6a.74.74,0,0,1-.74-.75,6.24,6.24,0,0,0-3.49-5.55.75.75,0,0,1-.37-1,.74.74,0,0,1,1-.37,7.73,7.73,0,0,1,4.36,6.91A.74.74,0,0,1,65.34,156.6Z" transform="translate(-6.24 -56.92)"/><path class="cls-7" d="M61.12,170.56a.75.75,0,0,1-.66-.4.74.74,0,0,1,.32-1,6.76,6.76,0,0,0,3.36-5.79.74.74,0,0,1,.74-.74.75.75,0,0,1,.75.74,8.24,8.24,0,0,1-4.16,7.11A.72.72,0,0,1,61.12,170.56Z" transform="translate(-6.24 -56.92)"/><path class="cls-7" d="M70.14,88.62a.58.58,0,0,1-.59-.59V84.15a.58.58,0,0,1,.59-.59.59.59,0,0,1,.6.59V88A.59.59,0,0,1,70.14,88.62Z" transform="translate(-6.24 -56.92)"/><path class="cls-7" d="M66.93,88.73a.6.6,0,0,1-.53-.32l-1.33-2.54a.61.61,0,0,1,.26-.81.59.59,0,0,1,.8.26l1.33,2.54a.61.61,0,0,1-.25.81A.71.71,0,0,1,66.93,88.73Z" transform="translate(-6.24 -56.92)"/><path class="cls-7" d="M64.47,90.74a.61.61,0,0,1-.45-.2L62,88.2a.6.6,0,0,1,.89-.79l2.07,2.34a.59.59,0,0,1,0,.84A.58.58,0,0,1,64.47,90.74Z" transform="translate(-6.24 -56.92)"/><path class="cls-7" d="M73.37,88.73a.67.67,0,0,1-.28-.06.61.61,0,0,1-.25-.81l1.33-2.54a.59.59,0,0,1,.8-.26.61.61,0,0,1,.25.81l-1.33,2.54A.57.57,0,0,1,73.37,88.73Z" transform="translate(-6.24 -56.92)"/><path class="cls-7" d="M75.83,90.74a.62.62,0,0,1-.4-.15.61.61,0,0,1-.05-.84l2.08-2.34a.6.6,0,1,1,.89.79l-2.08,2.34A.59.59,0,0,1,75.83,90.74Z" transform="translate(-6.24 -56.92)"/><path class="cls-7" d="M27.17,101.51a.6.6,0,0,1-.6-.6V97a.6.6,0,0,1,.6-.6.59.59,0,0,1,.59.6v3.87A.59.59,0,0,1,27.17,101.51Z" transform="translate(-6.24 -56.92)"/><path class="cls-7" d="M24,101.62a.6.6,0,0,1-.53-.32L22.1,98.75a.59.59,0,0,1,.25-.8.6.6,0,0,1,.81.25l1.33,2.55a.59.59,0,0,1-.26.8A.52.52,0,0,1,24,101.62Z" transform="translate(-6.24 -56.92)"/><path class="cls-7" d="M21.49,103.62a.57.57,0,0,1-.44-.2L19,101.09a.62.62,0,0,1,.05-.85.6.6,0,0,1,.84.06l2.08,2.33a.6.6,0,0,1-.45,1Z" transform="translate(-6.24 -56.92)"/><path class="cls-7" d="M30.39,101.62a.54.54,0,0,1-.27-.07.59.59,0,0,1-.25-.8L31.2,98.2a.59.59,0,0,1,1.05.55l-1.33,2.55A.59.59,0,0,1,30.39,101.62Z" transform="translate(-6.24 -56.92)"/><path class="cls-7" d="M32.86,103.62a.62.62,0,0,1-.4-.15.6.6,0,0,1-.05-.84l2.08-2.34a.6.6,0,1,1,.89.8l-2.08,2.33A.57.57,0,0,1,32.86,103.62Z" transform="translate(-6.24 -56.92)"/><path class="cls-10" d="M32,200.38a.6.6,0,0,1-.59-.54c0-.27-.67-6.75,3.33-8.57a.6.6,0,0,1,.79.29.59.59,0,0,1-.3.79c-3.22,1.47-2.65,7.31-2.64,7.37a.58.58,0,0,1-.53.65Z" transform="translate(-6.24 -56.92)"/><path class="cls-10" d="M34.34,199.82h-.05a.59.59,0,0,1-.54-.64,5,5,0,0,1,2.81-4.05.6.6,0,0,1,.44,1.11,3.8,3.8,0,0,0-2.06,3A.6.6,0,0,1,34.34,199.82Z" transform="translate(-6.24 -56.92)"/><path class="cls-10" d="M83.25,199.6h-.11a.59.59,0,0,1-.47-.7c0-.14.72-3.54,2.41-5a.6.6,0,0,1,.84.07.61.61,0,0,1-.06.84c-1.15,1-1.85,3.45-2,4.31A.6.6,0,0,1,83.25,199.6Z" transform="translate(-6.24 -56.92)"/><path class="cls-10" d="M86,200.27a.61.61,0,0,1-.3-.08.6.6,0,0,1-.22-.82c.28-.47,1.69-2.83,2.69-3.33a.58.58,0,0,1,.79.26.59.59,0,0,1-.26.8A10.82,10.82,0,0,0,86.48,200,.6.6,0,0,1,86,200.27Z" transform="translate(-6.24 -56.92)"/><path class="cls-10" d="M52.13,208.38a1.77,1.77,0,1,1,1.92-1.76A1.86,1.86,0,0,1,52.13,208.38Zm0-2.33a.59.59,0,1,0,0,1.14.59.59,0,1,0,0-1.14Z" transform="translate(-6.24 -56.92)"/><ellipse class="cls-10" cx="41.11" cy="149.94" rx="0.86" ry="0.73"/><path class="cls-10" d="M101.29,209.65c-1.67,0-2.92-.78-2.92-1.81s1.25-1.82,2.92-1.82,2.92.78,2.92,1.82S103,209.65,101.29,209.65Zm0-2.44c-1.14,0-1.73.47-1.73.63s.59.62,1.73.62,1.73-.46,1.73-.62S102.42,207.21,101.29,207.21Z" transform="translate(-6.24 -56.92)"/><path class="cls-10" d="M96,208.38H91a.6.6,0,0,1-.6-.6.59.59,0,0,1,.6-.59h5a.59.59,0,0,1,.6.59A.6.6,0,0,1,96,208.38Z" transform="translate(-6.24 -56.92)"/><circle class="cls-10" cx="82.01" cy="150.95" r="0.75"/><circle class="cls-10" cx="100.2" cy="150.7" r="0.66"/><path class="cls-10" d="M216.87,210.17a1.76,1.76,0,1,1,1.93-1.75A1.84,1.84,0,0,1,216.87,210.17Zm0-2.32a.68.68,0,0,0-.73.57c0,.3.34.56.73.56s.74-.26.74-.56A.68.68,0,0,0,216.87,207.85Z" transform="translate(-6.24 -56.92)"/><ellipse class="cls-10" cx="205.85" cy="151.74" rx="0.86" ry="0.73"/><path class="cls-10" d="M228.72,209.51h-6.86a.6.6,0,1,1,0-1.19h6.86a.6.6,0,1,1,0,1.19Z" transform="translate(-6.24 -56.92)"/><ellipse class="cls-10" cx="227.8" cy="152.44" rx="1.07" ry="0.91"/><path class="cls-10" d="M186,200.21h0a.6.6,0,0,1-.58-.61c0-.22.2-5.45,3.54-8.31a.6.6,0,0,1,.84.06.59.59,0,0,1-.06.84c-2.94,2.52-3.12,7.39-3.13,7.44A.59.59,0,0,1,186,200.21Z" transform="translate(-6.24 -56.92)"/><path class="cls-10" d="M189,200.06l-.14,0a.58.58,0,0,1-.44-.71c0-.15.86-3.51,3.25-4.36a.59.59,0,0,1,.76.36.59.59,0,0,1-.36.76c-1.49.53-2.31,2.71-2.5,3.51A.58.58,0,0,1,189,200.06Z" transform="translate(-6.24 -56.92)"/><path class="cls-10" d="M156.11,57.54s7.45-2.56,11.79,2.69a10.57,10.57,0,0,1,10.45-2.94s-6.78,1.77-10.17,7.6C168.18,64.89,161.59,57.08,156.11,57.54Z" transform="translate(-6.24 -56.92)"/><path class="cls-10" d="M159.58,57.54c3.73,1.41,7.2,4.93,8.51,6.35a18.19,18.19,0,0,1,7.83-6.35,9.72,9.72,0,0,0-7.56,3.07.58.58,0,0,1-.46.22h0a.58.58,0,0,1-.45-.22A9.21,9.21,0,0,0,159.58,57.54Z" transform="translate(-6.24 -56.92)"/><path class="cls-10" d="M179.51,71.1s5.47-1.88,8.65,2a7.75,7.75,0,0,1,7.66-2.15,13.36,13.36,0,0,0-7.46,5.57S183.53,70.77,179.51,71.1Z" transform="translate(-6.24 -56.92)"/><path class="cls-10" d="M182.79,71.24a20.12,20.12,0,0,1,5.49,4.27,13.26,13.26,0,0,1,5-4.24,7,7,0,0,0-4.69,2.19.61.61,0,0,1-.46.21h0a.6.6,0,0,1-.46-.22A6.35,6.35,0,0,0,182.79,71.24Z" transform="translate(-6.24 -56.92)"/><path class="cls-6" d="M217.1,154.9V95.56s-2-7.75-9.3-7.75-8.41,8.41-8.41,8.41V148.7s-1.11,7.09-12.18,7.53-13.06-10.63-13.06-10.63V108.84s-1.78-7.75-9.3-8-8.86,8.86-8.86,8.86v36.53c2.21,18.16,15.06,25.69,26.57,26.8S199,169.74,199,169.74V199H217.1V154.9Z" transform="translate(-6.24 -56.92)"/><polyline class="cls-7" points="211.74 96.85 211.74 143.25 210.25 143.25 210.24 95.36"/><path class="cls-8" d="M199.46,148.09" transform="translate(-6.24 -56.92)"/><path class="cls-9" d="M190.16,151.58" transform="translate(-6.24 -56.92)"/><path class="cls-9" d="M194.86,171.73" transform="translate(-6.24 -56.92)"/><path class="cls-7" d="M200.06,200.17h-1.49V180.39l-.07-9.12c-6.32,3.87-17.08,2.5-17.57,2.44a30,30,0,0,1-25.16-27.9,7.52,7.52,0,0,1-.05-1v-35a9.36,9.36,0,0,1,9.35-9.36h.4a9.36,9.36,0,0,1,9.35,9.36v35a4.87,4.87,0,0,1,0,.54,10.89,10.89,0,0,0,6.52,8.79A19.61,19.61,0,0,0,188,155.3a11.67,11.67,0,0,0,10.53-5.93l.07-2.63V96.84a9.37,9.37,0,0,1,9.36-9.36h.69A9.37,9.37,0,0,1,218,96.84V155.4h-1.49V96.84A7.88,7.88,0,0,0,208.62,89h-.69a7.88,7.88,0,0,0-7.87,7.87v49.92l-.08,3-.1.17c-6.12,10.62-19,5.65-19.13,5.6a12.36,12.36,0,0,1-7.43-10.08v-.13c0-.16,0-.33,0-.5v-35a7.88,7.88,0,0,0-7.87-7.87h-.4a7.88,7.88,0,0,0-7.87,7.87v35a8.21,8.21,0,0,0,.05.84,28.52,28.52,0,0,0,23.89,26.55c.11,0,12.08,1.53,17.63-3l1.2-1,.09,12.09Z" transform="translate(-6.24 -56.92)"/><path class="cls-7" d="M203.69,147.71a.45.45,0,0,1-.45-.45V98.55c.23-8.14,4.29-10.61,4.46-10.71a.45.45,0,0,1,.61.16.43.43,0,0,1-.16.61s-3.81,2.36-4,10v48.7A.45.45,0,0,1,203.69,147.71Z" transform="translate(-6.24 -56.92)"/><path class="cls-7" d="M203.69,200.39a.45.45,0,0,1-.45-.44V172.5a.45.45,0,0,1,.89,0V200A.44.44,0,0,1,203.69,200.39Z" transform="translate(-6.24 -56.92)"/><path class="cls-7" d="M213.08,200.39a.45.45,0,0,1-.45-.44V174.33a.45.45,0,1,1,.89,0V200A.44.44,0,0,1,213.08,200.39Z" transform="translate(-6.24 -56.92)"/><path class="cls-7" d="M213.08,169.12a.45.45,0,0,1-.45-.45V98.55c-.21-7.58-4-9.92-4-9.94a.45.45,0,0,1,.45-.77c.17.1,4.24,2.57,4.46,10.69v70.14A.45.45,0,0,1,213.08,169.12Z" transform="translate(-6.24 -56.92)"/><path class="cls-7" d="M208.39,179.59a.44.44,0,0,1-.44-.44V88.47a.45.45,0,1,1,.89,0v90.68A.45.45,0,0,1,208.39,179.59Z" transform="translate(-6.24 -56.92)"/><path class="cls-7" d="M208.56,200.35a.45.45,0,0,1-.45-.44V184a.45.45,0,1,1,.89,0v15.92A.44.44,0,0,1,208.56,200.35Z" transform="translate(-6.24 -56.92)"/><path class="cls-9" d="M214.32,151" transform="translate(-6.24 -56.92)"/><path class="cls-9" d="M214.09,155.56" transform="translate(-6.24 -56.92)"/><path class="cls-9" d="M203.08,167.69" transform="translate(-6.24 -56.92)"/><path class="cls-9" d="M203.24,172.84" transform="translate(-6.24 -56.92)"/><path class="cls-7" d="M187.55,170.17a29.86,29.86,0,0,1-12.41-2.8c-9.57-4.33-13.25-13.28-14.65-20a35.53,35.53,0,0,1-.44-5.4V111.83c.22-8.14,4.29-10.6,4.46-10.7a.43.43,0,0,1,.61.16.45.45,0,0,1-.16.61c-.06,0-3.81,2.38-4,9.94V142a34.87,34.87,0,0,0,.43,5.22c1.35,6.54,4.91,15.21,14.14,19.39a28,28,0,0,0,15.4,2.49,19.64,19.64,0,0,0,6.23-1.81.45.45,0,1,1,.43.78,19.92,19.92,0,0,1-6.54,1.91A25.12,25.12,0,0,1,187.55,170.17Z" transform="translate(-6.24 -56.92)"/><path class="cls-7" d="M188.24,161.11a28.18,28.18,0,0,1-4.93-.46,16.23,16.23,0,0,1-13.74-13.94c-.12-.85-.13-4.12-.13-4.26V111.83c-.22-7.62-4-9.91-4-9.93a.45.45,0,0,1,.45-.77c.17.1,4.23,2.56,4.46,10.69v30.62s0,3.36.12,4.15a15.37,15.37,0,0,0,13,13.18c12.62,2.25,17.1-4.92,17.14-5a.45.45,0,0,1,.77.46C201.21,155.52,197.71,161.11,188.24,161.11Z" transform="translate(-6.24 -56.92)"/><path class="cls-7" d="M188.23,165.79A34.54,34.54,0,0,1,181,165c-13.36-2.9-15.75-17.12-16-18.73-.21-1.45-.24-4.28-.24-4.4V101.76a.45.45,0,1,1,.9,0v40.08s0,2.88.22,4.28,2.52,15.2,15.29,18c7.38,1.6,12.52.46,15.55-.77a13.85,13.85,0,0,0,4.84-3.08.45.45,0,0,1,.67.59C202,161.09,197.74,165.79,188.23,165.79Z" transform="translate(-6.24 -56.92)"/><path class="cls-7" d="M203.4,156.6a.74.74,0,0,1-.74-.75,6.24,6.24,0,0,0-3.49-5.55.75.75,0,0,1-.37-1,.74.74,0,0,1,1-.37,7.72,7.72,0,0,1,4.37,6.91A.75.75,0,0,1,203.4,156.6Z" transform="translate(-6.24 -56.92)"/><path class="cls-7" d="M199.19,170.56a.73.73,0,0,1-.66-.4.74.74,0,0,1,.31-1,6.76,6.76,0,0,0,3.36-5.79.75.75,0,0,1,.75-.74.74.74,0,0,1,.74.74,8.24,8.24,0,0,1-4.16,7.11A.71.71,0,0,1,199.19,170.56Z" transform="translate(-6.24 -56.92)"/><path class="cls-7" d="M208.21,88.62a.59.59,0,0,1-.6-.59V84.15a.6.6,0,0,1,1.19,0V88A.59.59,0,0,1,208.21,88.62Z" transform="translate(-6.24 -56.92)"/><path class="cls-7" d="M205,88.73a.57.57,0,0,1-.52-.32l-1.33-2.54a.61.61,0,0,1,.25-.81.59.59,0,0,1,.8.26l1.33,2.54a.61.61,0,0,1-.25.81A.67.67,0,0,1,205,88.73Z" transform="translate(-6.24 -56.92)"/><path class="cls-7" d="M202.53,90.74a.59.59,0,0,1-.44-.2L200,88.2a.6.6,0,1,1,.89-.79L203,89.75a.61.61,0,0,1,0,.84A.62.62,0,0,1,202.53,90.74Z" transform="translate(-6.24 -56.92)"/><path class="cls-7" d="M211.43,88.73a.71.71,0,0,1-.28-.06.61.61,0,0,1-.25-.81l1.33-2.54a.59.59,0,0,1,.8-.26.6.6,0,0,1,.26.81L212,88.41A.6.6,0,0,1,211.43,88.73Z" transform="translate(-6.24 -56.92)"/><path class="cls-7" d="M213.89,90.74a.58.58,0,0,1-.39-.15.59.59,0,0,1-.05-.84l2.07-2.34a.6.6,0,1,1,.89.79l-2.07,2.34A.61.61,0,0,1,213.89,90.74Z" transform="translate(-6.24 -56.92)"/><path class="cls-7" d="M165.23,101.51a.59.59,0,0,1-.59-.6V97a.59.59,0,0,1,.59-.6.6.6,0,0,1,.6.6v3.87A.6.6,0,0,1,165.23,101.51Z" transform="translate(-6.24 -56.92)"/><path class="cls-7" d="M162,101.62a.61.61,0,0,1-.53-.32l-1.32-2.55a.59.59,0,0,1,.25-.8.59.59,0,0,1,.8.25l1.33,2.55a.59.59,0,0,1-.25.8A.55.55,0,0,1,162,101.62Z" transform="translate(-6.24 -56.92)"/><path class="cls-7" d="M159.56,103.62a.59.59,0,0,1-.45-.2L157,101.09a.6.6,0,1,1,.89-.79l2.07,2.33a.59.59,0,0,1-.05.84A.58.58,0,0,1,159.56,103.62Z" transform="translate(-6.24 -56.92)"/><path class="cls-7" d="M168.46,101.62a.58.58,0,0,1-.28-.07.59.59,0,0,1-.25-.8l1.33-2.55a.59.59,0,0,1,.8-.25.59.59,0,0,1,.25.8L169,101.3A.61.61,0,0,1,168.46,101.62Z" transform="translate(-6.24 -56.92)"/><path class="cls-7" d="M170.92,103.62a.58.58,0,0,1-.39-.15.59.59,0,0,1-.05-.84l2.07-2.34a.61.61,0,0,1,.84-.05.6.6,0,0,1,.05.85l-2.07,2.33A.57.57,0,0,1,170.92,103.62Z" transform="translate(-6.24 -56.92)"/><path class="cls-11" d="M294.61,200.62H7a.74.74,0,0,1-.74-.74.75.75,0,0,1,.74-.75H294.61a.76.76,0,0,1,.75.75A.75.75,0,0,1,294.61,200.62Z" transform="translate(-6.24 -56.92)"/><path class="cls-2" d="M261.45,175.78s-6,2.06-7.67,5.16-3.84,6-2,10.12,4,6.82,6.5,7.64,4.5,1.24,6.67.62,5.67-1.44,7-2.68,3.17-4.55,3-9.3.33-7.23-3.17-9.71S261.45,175.78,261.45,175.78Z" transform="translate(-6.24 -56.92)"/><path class="cls-4" d="M262.82,200.22a15.16,15.16,0,0,1-4.7-.95c-2.58-.85-4.88-3.52-6.85-8-1.75-3.94-.13-6.83,1.44-9.62.2-.35.4-.7.59-1.06,1.75-3.26,7.73-5.34,8-5.43l.12,0c.29,0,7.08-.6,10.7,2,3.27,2.31,3.31,4.73,3.37,8.38,0,.56,0,1.16,0,1.8.19,5.2-1.92,8.59-3.19,9.77s-4,1.92-6.26,2.54l-1,.27A8.2,8.2,0,0,1,262.82,200.22Zm-1.26-23.86c-.62.23-5.85,2.17-7.3,4.88l-.6,1.08c-1.48,2.63-2.87,5.12-1.38,8.49,1.83,4.11,3.9,6.58,6.17,7.32,2.43.81,4.35,1.19,6.36.62l1-.27c2-.56,4.76-1.32,5.81-2.29s3-4.06,2.81-8.83c0-.64,0-1.25,0-1.82-.06-3.62-.09-5.44-2.88-7.41C268.35,175.92,262.25,176.31,261.56,176.36Z" transform="translate(-6.24 -56.92)"/><path class="cls-4" d="M262.76,195.52a2.37,2.37,0,0,1-.76-.11c-2.11-.65-5.47-4.95-5.47-7.65s2.23-6.58,4.51-7a7.06,7.06,0,0,1,4.45.61l.6.23c1.29.48,2.94,1.36,3.47,2.81a3.19,3.19,0,0,1-.24,2.57c-1.39,2.8-3.17,5.63-5.74,5.4a4.26,4.26,0,0,1-3.07-1.54,4,4,0,0,1-.81-2.87l0-.28c.15-1.84.27-3.43,2.56-3.43a2.76,2.76,0,0,1,2.67,1.42,1.92,1.92,0,0,1-.35,2,2,2,0,0,1-2.71.5.47.47,0,0,1-.12-.62.4.4,0,0,1,.58-.13,1.16,1.16,0,0,0,1.62-.33,1,1,0,0,0,.22-1.05,2,2,0,0,0-1.91-.9c-1.46,0-1.57.59-1.73,2.62l0,.28a3.12,3.12,0,0,0,.62,2.22,3.46,3.46,0,0,0,2.5,1.22c2.11.18,3.67-2.39,4.94-4.93a2.24,2.24,0,0,0,.19-1.83c-.32-.88-1.37-1.7-3-2.29l-.61-.23a6.43,6.43,0,0,0-4-.58c-1.71.36-3.83,3.76-3.83,6.18s3.07,6.24,4.87,6.8c1.65.5,5.1-1.67,7.79-4.05,2.09-1.85,2.06-3.19.88-6.3s-6.77-5.89-8.88-5.52-5.55,4.18-6.34,7.12,1.28,7.28,1.3,7.32a.45.45,0,0,1-.18.6.41.41,0,0,1-.56-.19c-.09-.2-2.23-4.74-1.36-8s4.54-7.32,7-7.76,8.53,2.7,9.8,6.06,1.37,5.12-1.13,7.33C269.68,192,265.52,195.52,262.76,195.52Z" transform="translate(-6.24 -56.92)"/><path class="cls-4" d="M269,198.75a.43.43,0,0,1-.41-.37.46.46,0,0,1,.35-.52s4.19-.77,5.62-2.81c.28-.39.52-.7.72-1,1-1.26,1.13-1.49.87-3.76-.17-1.51-1.18-9.07-4.59-10.13a18.88,18.88,0,0,0-4.67-1,.43.43,0,0,1-.41-.45.42.42,0,0,1,.41-.44,18.91,18.91,0,0,1,4.9,1.05c3.82,1.19,4.94,8.63,5.19,10.88.28,2.55,0,3-1.05,4.43-.2.26-.43.57-.7,1-1.64,2.32-6,3.12-6.16,3.15Z" transform="translate(-6.24 -56.92)"/><path class="cls-4" d="M261.09,199.66c-4.64,0-8.48-10.09-8.64-10.53a.45.45,0,0,1,.23-.58.41.41,0,0,1,.54.25c0,.1,3.79,10,7.87,10h.07c4.62-.13,11.26-3.09,11.16-8.1a.42.42,0,0,1,.41-.45.44.44,0,0,1,.42.43c.12,6.12-7.73,8.89-12,9Z" transform="translate(-6.24 -56.92)"/><path class="cls-4" d="M245.65,194.79a.42.42,0,0,1-.38-.26.45.45,0,0,1,.2-.59,6.79,6.79,0,0,0,1.61-1.13.41.41,0,0,1,.59,0,.47.47,0,0,1,0,.63,7.85,7.85,0,0,1-1.8,1.27A.39.39,0,0,1,245.65,194.79Z" transform="translate(-6.24 -56.92)"/><path class="cls-4" d="M242,195.59c-3.22,0-6.67-1.42-9.54-2.59a22,22,0,0,0-4.6-1.56c-3.86-.51-4.59,1.28-4.59,1.29a.42.42,0,0,1-.54.26.46.46,0,0,1-.24-.57c0-.1.9-2.47,5.48-1.87a22.64,22.64,0,0,1,4.78,1.61c3.43,1.4,7.69,3.15,11.2,2.32a.43.43,0,0,1,.5.34.44.44,0,0,1-.32.53A8.92,8.92,0,0,1,242,195.59Z" transform="translate(-6.24 -56.92)"/><path class="cls-4" d="M248.74,185.62a.43.43,0,0,1-.34-.19.46.46,0,0,1,.1-.62,9.67,9.67,0,0,0,1.12-2.68c.23-.71.48-1.44.72-2a6,6,0,0,1,2.87-3.05c.67-.26,7.4-1.58,8.17-1.73a.41.41,0,0,1,.48.36.44.44,0,0,1-.34.51c-3,.59-7.57,1.52-8,1.7a5.27,5.27,0,0,0-2.39,2.58c-.23.53-.47,1.25-.69,1.94-.56,1.67-.93,2.72-1.42,3.1A.4.4,0,0,1,248.74,185.62Z" transform="translate(-6.24 -56.92)"/><path class="cls-4" d="M255.62,197.82c-1.29,0-4-2.11-4.05-2.13a.47.47,0,0,1-.09-.63.41.41,0,0,1,.58-.1c.79.62,2.79,2,3.56,2a.45.45,0,0,1,0,.89Z" transform="translate(-6.24 -56.92)"/><path class="cls-4" d="M240.71,191.57a13,13,0,0,1-8.49-3.38.46.46,0,0,1-.07-.62.4.4,0,0,1,.59-.08c5.4,4.55,10.3,3.14,12.16,2.32a.42.42,0,0,1,.55.25.46.46,0,0,1-.23.58A11.33,11.33,0,0,1,240.71,191.57Z" transform="translate(-6.24 -56.92)"/><path class="cls-10" d="M30.72,75.82s7.46-2.57,11.8,2.69A10.53,10.53,0,0,1,53,75.57s-6.78,1.76-10.17,7.59C42.79,83.16,36.2,75.36,30.72,75.82Z" transform="translate(-6.24 -56.92)"/><path class="cls-10" d="M34.19,75.81c3.73,1.42,7.21,4.93,8.51,6.36a18.08,18.08,0,0,1,7.84-6.35A9.73,9.73,0,0,0,43,78.89a.57.57,0,0,1-.45.21h0a.61.61,0,0,1-.46-.21A9.23,9.23,0,0,0,34.19,75.81Z" transform="translate(-6.24 -56.92)"/></svg>